<svg xmlns="http://www.w3.org/2000/svg" xmlns:xlink="http://www.w3.org/1999/xlink" width="2000" zoomAndPan="magnify" viewBox="0 0 1500 1499.999933" height="2000" preserveAspectRatio="xMidYMid meet" version="1.0"><defs><g/><clipPath id="e2607fb316"><path d="M 892 942 L 1057 942 L 1057 1106.808594 L 892 1106.808594 Z M 892 942 " clip-rule="nonzero"/></clipPath><clipPath id="f857b93ef4"><path d="M 290 393.558594 L 488 393.558594 L 488 592 L 290 592 Z M 290 393.558594 " clip-rule="nonzero"/></clipPath><clipPath id="8f1efa8413"><path d="M 536 393.558594 L 645 393.558594 L 645 501 L 536 501 Z M 536 393.558594 " clip-rule="nonzero"/></clipPath><clipPath id="6c144d2c53"><path d="M 517.011719 582 L 983 582 L 983 989.925781 L 517.011719 989.925781 Z M 517.011719 582 " clip-rule="nonzero"/></clipPath><clipPath id="28504b5494"><path d="M 535.484375 647.296875 C 497.703125 709.542969 524.320312 770.128906 557.769531 802.28125 L 753.351562 989.925781 L 944.804688 802.953125 C 975.917969 768.363281 987.84375 731.671875 981.21875 690.816406 C 972.070312 634.296875 925.496094 590.449219 867.964844 584.1875 C 832.675781 580.386719 798.589844 590.375 771.984375 612.480469 C 764.824219 618.429688 758.425781 625.078125 752.847656 632.308594 C 746.230469 624.078125 738.46875 616.550781 729.691406 609.878906 C 699.097656 586.628906 660.15625 577.398438 622.75 584.574219 C 587.320312 591.417969 555.519531 614.273438 535.484375 647.296875 Z M 535.484375 647.296875 " clip-rule="nonzero"/></clipPath><clipPath id="510f2711e0"><path d="M 0.0117188 0 L 466 0 L 466 407.925781 L 0.0117188 407.925781 Z M 0.0117188 0 " clip-rule="nonzero"/></clipPath><clipPath id="8fc6ccf1b4"><path d="M 18.484375 65.296875 C -19.296875 127.542969 7.320312 188.128906 40.769531 220.28125 L 236.351562 407.925781 L 427.804688 220.953125 C 458.917969 186.363281 470.84375 149.671875 464.21875 108.816406 C 455.070312 52.296875 408.496094 8.449219 350.964844 2.1875 C 315.675781 -1.613281 281.589844 8.375 254.984375 30.480469 C 247.824219 36.429688 241.425781 43.078125 235.847656 50.308594 C 229.230469 42.078125 221.46875 34.550781 212.691406 27.878906 C 182.097656 4.628906 143.15625 -4.601562 105.75 2.574219 C 70.320312 9.417969 38.519531 32.273438 18.484375 65.296875 Z M 18.484375 65.296875 " clip-rule="nonzero"/></clipPath><clipPath id="63195690d7"><rect x="0" width="466" y="0" height="408"/></clipPath><clipPath id="859dbe7886"><path d="M 581.574219 632 L 918.917969 632 L 918.917969 927.421875 L 581.574219 927.421875 Z M 581.574219 632 " clip-rule="nonzero"/></clipPath><clipPath id="8541d5d6a0"><path d="M 594.929688 679.742188 C 567.617188 724.738281 586.859375 768.535156 611.039062 791.777344 L 752.421875 927.421875 L 890.824219 792.261719 C 913.3125 767.257812 921.933594 740.734375 917.144531 711.199219 C 910.53125 670.34375 876.863281 638.644531 835.273438 634.121094 C 809.765625 631.375 785.125 638.59375 765.894531 654.574219 C 760.71875 658.871094 756.089844 663.679688 752.058594 668.90625 C 747.273438 662.957031 741.664062 657.515625 735.320312 652.691406 C 713.203125 635.882812 685.054688 629.210938 658.011719 634.402344 C 632.402344 639.347656 609.414062 655.867188 594.929688 679.742188 Z M 594.929688 679.742188 " clip-rule="nonzero"/></clipPath><clipPath id="c0939c6488"><path d="M 0.574219 0.640625 L 337.917969 0.640625 L 337.917969 295.421875 L 0.574219 295.421875 Z M 0.574219 0.640625 " clip-rule="nonzero"/></clipPath><clipPath id="e5264098a3"><path d="M 13.929688 47.742188 C -13.382812 92.738281 5.859375 136.535156 30.039062 159.777344 L 171.421875 295.421875 L 309.824219 160.261719 C 332.3125 135.257812 340.933594 108.734375 336.144531 79.199219 C 329.53125 38.34375 295.863281 6.644531 254.273438 2.121094 C 228.765625 -0.625 204.125 6.59375 184.894531 22.574219 C 179.71875 26.871094 175.089844 31.679688 171.058594 36.90625 C 166.273438 30.957031 160.664062 25.515625 154.320312 20.691406 C 132.203125 3.882812 104.054688 -2.789062 77.011719 2.402344 C 51.402344 7.347656 28.414062 23.867188 13.929688 47.742188 Z M 13.929688 47.742188 " clip-rule="nonzero"/></clipPath><clipPath id="c4c53314ff"><rect x="0" width="338" y="0" height="296"/></clipPath><clipPath id="39ee6be528"><rect x="0" width="592" y="0" height="322"/></clipPath><clipPath id="8c57663046"><rect x="0" width="377" y="0" height="140"/></clipPath></defs><rect x="-150" width="1800" fill="#ffffff" y="-149.999993" height="1799.99992" fill-opacity="1"/><rect x="-150" width="1800" fill="#fff1f4" y="-149.999993" height="1799.99992" fill-opacity="1"/><path fill="#ff66c4" d="M 991.449219 579.433594 C 928.496094 516.484375 826.429688 516.484375 763.476562 579.433594 L 748.691406 594.222656 L 733.902344 579.433594 C 670.953125 516.484375 568.882812 516.484375 505.921875 579.433594 C 442.972656 642.394531 442.972656 744.464844 505.921875 807.414062 L 520.71875 822.203125 L 748.691406 1050.171875 L 991.449219 807.414062 C 1054.410156 744.464844 1054.410156 642.394531 991.449219 579.433594 " fill-opacity="1" fill-rule="nonzero"/><g clip-path="url(#e2607fb316)"><path fill="#ff66c4" d="M 1056.460938 1024.359375 C 1011.136719 1024.359375 974.386719 987.609375 974.386719 942.285156 C 974.386719 987.609375 937.640625 1024.359375 892.316406 1024.359375 C 937.640625 1024.359375 974.386719 1061.109375 974.386719 1106.433594 C 974.386719 1061.109375 1011.136719 1024.359375 1056.460938 1024.359375 " fill-opacity="1" fill-rule="nonzero"/></g><g clip-path="url(#f857b93ef4)"><path fill="#ff66c4" d="M 487.75 492.421875 C 433.152344 492.421875 388.882812 448.15625 388.882812 393.558594 C 388.882812 448.15625 344.625 492.421875 290.027344 492.421875 C 344.625 492.421875 388.882812 536.679688 388.882812 591.277344 C 388.882812 536.679688 433.152344 492.421875 487.75 492.421875 " fill-opacity="1" fill-rule="nonzero"/></g><path fill="#ff66c4" d="M 1253.886719 910.644531 C 1197.441406 910.644531 1151.679688 864.890625 1151.679688 808.4375 C 1151.679688 864.890625 1105.917969 910.644531 1049.472656 910.644531 C 1105.917969 910.644531 1151.679688 956.40625 1151.679688 1012.851562 C 1151.679688 956.40625 1197.441406 910.644531 1253.886719 910.644531 " fill-opacity="1" fill-rule="nonzero"/><path fill="#ff66c4" d="M 359.042969 698.304688 C 313.714844 698.304688 276.96875 661.554688 276.96875 616.230469 C 276.96875 661.554688 240.21875 698.304688 194.894531 698.304688 C 240.21875 698.304688 276.96875 735.042969 276.96875 780.367188 C 276.96875 735.042969 313.714844 698.304688 359.042969 698.304688 " fill-opacity="1" fill-rule="nonzero"/><g clip-path="url(#8f1efa8413)"><path fill="#ff66c4" d="M 644.199219 447.191406 C 614.582031 447.191406 590.566406 423.175781 590.566406 393.558594 C 590.566406 423.175781 566.554688 447.191406 536.933594 447.191406 C 566.554688 447.191406 590.566406 471.203125 590.566406 500.824219 C 590.566406 471.203125 614.582031 447.191406 644.199219 447.191406 " fill-opacity="1" fill-rule="nonzero"/></g><path fill="#ff66c4" d="M 641.492188 942.980469 C 453.332031 985.976562 307.210938 985.132812 291.421875 934.898438 C 278.65625 894.277344 354.296875 831.371094 478.347656 770.527344 C 475.488281 765.292969 472.914062 759.9375 470.6875 754.480469 C 288.429688 833.925781 171.707031 917.835938 187.347656 967.609375 C 205.847656 1026.476562 403.597656 1018.585938 653.304688 954.796875 L 641.492188 942.980469 " fill-opacity="1" fill-rule="nonzero"/><path fill="#ff66c4" d="M 1310.035156 614.789062 C 1295.703125 569.195312 1173.855469 563.65625 1003.617188 593.097656 C 1008.492188 599.207031 1012.871094 605.582031 1016.722656 612.183594 C 1122.382812 601.738281 1195.082031 612.90625 1205.960938 647.5 C 1220.65625 694.265625 1118.226562 770.546875 959.628906 839.242188 L 932.617188 866.246094 C 1167.375 776.738281 1328.21875 672.675781 1310.035156 614.789062 " fill-opacity="1" fill-rule="nonzero"/><g clip-path="url(#6c144d2c53)"><g clip-path="url(#28504b5494)"><g transform="matrix(1, 0, 0, 1, 517, 582)"><g clip-path="url(#63195690d7)"><g clip-path="url(#510f2711e0)"><g clip-path="url(#8fc6ccf1b4)"><path fill="#fff2f4" d="M 0.0117188 0.195312 L 466.671875 0.195312 L 466.671875 407.925781 L 0.0117188 407.925781 Z M 0.0117188 0.195312 " fill-opacity="1" fill-rule="nonzero"/></g></g></g></g></g></g><g clip-path="url(#859dbe7886)"><g clip-path="url(#8541d5d6a0)"><g transform="matrix(1, 0, 0, 1, 581, 632)"><g clip-path="url(#c4c53314ff)"><g clip-path="url(#c0939c6488)"><g clip-path="url(#e5264098a3)"><path fill="#ff66c4" d="M 0.574219 0.679688 L 337.917969 0.679688 L 337.917969 295.421875 L 0.574219 295.421875 Z M 0.574219 0.679688 " fill-opacity="1" fill-rule="nonzero"/></g></g></g></g></g></g><g transform="matrix(1, 0, 0, 1, 471, 622)"><g clip-path="url(#39ee6be528)"><g fill="#ff66c5" fill-opacity="1"><g transform="translate(5.183747, 209.925668)"><g><path d="M 126.875 -125.15625 C 129.527344 -125.15625 132.027344 -124.617188 134.375 -123.53125 C 136.769531 -122.425781 138.828125 -120.839844 140.550781 -118.773438 C 143.472656 -115.265625 144.9375 -111.132812 144.9375 -106.371094 C 144.9375 -99.730469 142.441406 -93.546875 137.457031 -87.828125 C 133.824219 -83.664062 129.296875 -79.890625 123.875 -76.515625 C 118.589844 -73.222656 112.714844 -70.597656 106.25 -68.640625 C 99.648438 -66.636719 93.09375 -65.636719 86.59375 -65.636719 C 79.5 -65.636719 72.808594 -67.039062 66.527344 -69.84375 C 60.480469 -72.542969 55.171875 -76.179688 50.601562 -80.75 C 45.976562 -85.375 42.355469 -90.746094 39.730469 -96.867188 C 37.0625 -103.097656 35.726562 -109.722656 35.726562 -116.746094 C 35.726562 -125.28125 37.554688 -133.308594 41.207031 -140.828125 C 44.742188 -148.105469 49.605469 -154.476562 55.800781 -159.953125 C 61.890625 -165.328125 68.941406 -169.519531 76.953125 -172.523438 C 84.9375 -175.519531 93.457031 -177.015625 102.511719 -177.015625 C 105.929688 -177.015625 109.300781 -176.828125 112.632812 -176.445312 C 116.015625 -176.058594 119.472656 -175.4375 123.003906 -174.578125 C 126.347656 -173.765625 130.007812 -172.695312 133.988281 -171.367188 C 137.78125 -170.101562 142.097656 -168.554688 146.9375 -166.71875 C 150.105469 -165.453125 152.632812 -164.492188 154.519531 -163.839844 C 156.8125 -163.046875 158.867188 -162.285156 160.675781 -161.5625 C 162.03125 -161.019531 163.308594 -160.550781 164.5 -160.152344 C 165.847656 -159.703125 167.515625 -159.171875 169.503906 -158.5625 L 165.46875 -145.449219 L 157.496094 -156.613281 C 164.074219 -161.3125 170.320312 -164.796875 176.234375 -167.0625 C 182.640625 -169.519531 189.183594 -170.746094 195.859375 -170.746094 C 204.121094 -170.746094 211.175781 -168.636719 217.03125 -164.417969 C 220.40625 -161.984375 223.019531 -159.105469 224.875 -155.785156 C 226.898438 -152.160156 227.910156 -148.230469 227.910156 -144 C 227.910156 -135.816406 224.871094 -128.917969 218.792969 -123.308594 C 213.847656 -118.738281 207.273438 -115.546875 199.078125 -113.722656 C 195.867188 -112.96875 192.355469 -112.398438 188.542969 -112.019531 C 185.046875 -111.667969 181.070312 -111.40625 176.609375 -111.238281 L 176.082031 -124.945312 L 188.261719 -118.628906 C 186.128906 -114.515625 184.230469 -110.609375 182.566406 -106.902344 C 181.003906 -103.421875 179.496094 -99.429688 178.042969 -94.925781 C 176.539062 -90.269531 175.027344 -84.773438 173.5 -78.433594 C 171.914062 -71.847656 170.082031 -63.855469 168.011719 -54.457031 C 166.074219 -45.246094 164.324219 -37.402344 162.765625 -30.921875 C 161.164062 -24.257812 159.550781 -18.359375 157.925781 -13.226562 C 156.203125 -7.792969 154.320312 -2.9375 152.277344 1.335938 C 150.308594 5.449219 148.082031 9.554688 145.589844 13.644531 C 137.757812 26.824219 127.027344 37.109375 113.394531 44.503906 C 99.9375 51.800781 85.296875 55.449219 69.46875 55.449219 C 59.015625 55.449219 49.375 53.847656 40.550781 50.644531 C 31.535156 47.378906 23.707031 42.722656 17.0625 36.683594 C 10.285156 30.523438 5.058594 23.152344 1.378906 14.570312 C -2.253906 6.089844 -4.070312 -3.1875 -4.070312 -13.265625 C -4.070312 -23.515625 -1.945312 -33.148438 2.304688 -42.15625 C 6.449219 -50.9375 12.078125 -58.589844 19.191406 -65.109375 C 26.25 -71.578125 34.519531 -76.652344 44.003906 -80.328125 C 53.480469 -84.003906 63.574219 -85.839844 74.292969 -85.839844 C 81.066406 -85.839844 86.578125 -84.761719 90.824219 -82.601562 C 94.140625 -80.914062 96.75 -78.613281 98.65625 -75.703125 C 100.726562 -72.546875 101.761719 -69.019531 101.761719 -65.125 C 101.761719 -63.738281 101.632812 -62.398438 101.375 -61.109375 C 100.90625 -58.78125 99.902344 -56.539062 98.359375 -54.378906 C 97.519531 -53.199219 96.386719 -51.898438 94.96875 -50.480469 L 91.230469 -46.742188 C 91.796875 -47.308594 92.230469 -47.976562 92.523438 -48.742188 C 92.730469 -49.285156 92.835938 -49.757812 92.835938 -50.171875 C 92.835938 -50.53125 92.730469 -50.933594 92.519531 -51.378906 C 92.339844 -51.761719 92.15625 -52.035156 91.972656 -52.191406 C 92.066406 -52.109375 92.363281 -52.070312 92.863281 -52.070312 C 95.515625 -52.070312 97.953125 -53.054688 100.183594 -55.027344 C 103.796875 -58.214844 107.789062 -63.84375 112.164062 -71.90625 L 124.222656 -65.367188 L 111.949219 -71.503906 C 113.335938 -74.269531 114.476562 -76.632812 115.382812 -78.59375 C 116.289062 -80.554688 117.277344 -82.796875 118.347656 -85.320312 C 119.382812 -87.765625 120.585938 -90.851562 121.957031 -94.582031 C 123.378906 -98.453125 125.207031 -103.574219 127.433594 -109.941406 L 127.503906 -110.136719 L 127.578125 -110.332031 C 128.511719 -112.757812 129.898438 -115.898438 131.738281 -119.757812 C 133.542969 -123.539062 135.796875 -127.878906 138.5 -132.777344 L 150.511719 -126.152344 L 149.753906 -112.453125 L 144.964844 -112.71875 L 136.5625 -113.738281 C 135.421875 -113.863281 134.320312 -113.960938 133.253906 -114.027344 C 132.253906 -114.089844 131.253906 -114.121094 130.253906 -114.121094 C 129.453125 -114.121094 128.824219 -114.050781 128.367188 -113.910156 C 128.277344 -113.882812 128.207031 -113.855469 128.160156 -113.832031 L 128.171875 -113.839844 C 128.453125 -114.066406 128.710938 -114.414062 128.9375 -114.890625 C 129.152344 -115.335938 129.257812 -115.710938 129.257812 -116.019531 C 129.257812 -116.988281 129.042969 -117.996094 128.613281 -119.039062 C 127.984375 -120.5625 127.019531 -121.847656 125.726562 -122.894531 C 124.746094 -123.6875 123.714844 -124.226562 122.632812 -124.519531 C 122.25 -124.625 121.972656 -124.675781 121.808594 -124.675781 C 121.128906 -124.675781 120.328125 -124.519531 119.402344 -124.210938 L 121.003906 -124.746094 L 126.347656 -125.15625 Z M 126.875 -97.71875 L 126.875 -111.4375 L 127.925781 -97.757812 L 124.792969 -97.519531 L 123.738281 -111.195312 L 128.078125 -98.179688 C 126.1875 -97.550781 124.097656 -97.234375 121.808594 -97.234375 C 116.488281 -97.234375 112.046875 -98.671875 108.484375 -101.550781 C 106.148438 -103.4375 104.402344 -105.777344 103.25 -108.570312 C 102.296875 -110.878906 101.820312 -113.363281 101.820312 -116.019531 C 101.820312 -119.867188 102.609375 -123.441406 104.191406 -126.742188 C 105.785156 -130.070312 108.089844 -132.929688 111.105469 -135.328125 C 116.339844 -139.480469 122.71875 -141.558594 130.253906 -141.558594 C 131.824219 -141.558594 133.394531 -141.511719 134.96875 -141.410156 C 136.472656 -141.316406 138.105469 -141.171875 139.863281 -140.976562 L 147.824219 -140.011719 L 146.171875 -126.394531 L 146.933594 -140.089844 L 173.070312 -138.640625 L 162.527344 -119.523438 C 160.082031 -115.097656 158.074219 -111.234375 156.503906 -107.941406 C 154.96875 -104.726562 153.863281 -102.238281 153.1875 -100.484375 L 140.382812 -105.40625 L 153.332031 -100.875 C 151.058594 -94.375 149.183594 -89.125 147.714844 -85.121094 C 146.1875 -80.96875 144.820312 -77.460938 143.605469 -74.601562 C 142.425781 -71.816406 141.320312 -69.316406 140.296875 -67.09375 C 139.273438 -64.875 138.003906 -62.253906 136.492188 -59.230469 L 136.390625 -59.027344 L 136.28125 -58.828125 C 130.363281 -47.917969 124.386719 -39.792969 118.351562 -34.460938 C 110.929688 -27.910156 102.4375 -24.632812 92.863281 -24.632812 C 85.648438 -24.632812 79.433594 -26.84375 74.21875 -31.269531 C 71.382812 -33.675781 69.210938 -36.480469 67.703125 -39.679688 C 66.164062 -42.9375 65.398438 -46.433594 65.398438 -50.171875 C 65.398438 -56.53125 67.539062 -61.855469 71.828125 -66.144531 L 75.566406 -69.882812 C 75.816406 -70.132812 76.015625 -70.339844 76.160156 -70.5 C 76.183594 -70.53125 76.199219 -70.546875 76.203125 -70.550781 C 76.152344 -70.492188 76.097656 -70.417969 76.03125 -70.328125 C 75.292969 -69.292969 74.773438 -68.011719 74.46875 -66.488281 C 74.371094 -66.003906 74.320312 -65.550781 74.320312 -65.125 C 74.320312 -63.5625 74.78125 -62.078125 75.707031 -60.667969 C 76.464844 -59.507812 77.359375 -58.664062 78.382812 -58.144531 C 78.523438 -58.074219 78.617188 -58.03125 78.664062 -58.015625 C 78.511719 -58.0625 78.292969 -58.109375 78.011719 -58.15625 C 77.054688 -58.320312 75.8125 -58.402344 74.292969 -58.402344 C 66.996094 -58.402344 60.210938 -57.183594 53.925781 -54.746094 C 47.652344 -52.3125 42.253906 -49.027344 37.734375 -44.882812 C 33.269531 -40.789062 29.730469 -35.976562 27.121094 -30.445312 C 24.617188 -25.144531 23.367188 -19.417969 23.367188 -13.265625 C 23.367188 -6.941406 24.445312 -1.265625 26.601562 3.761719 C 28.710938 8.6875 31.683594 12.894531 35.519531 16.382812 C 39.492188 19.992188 44.285156 22.8125 49.902344 24.851562 C 55.710938 26.957031 62.230469 28.007812 69.46875 28.007812 C 80.65625 28.007812 90.9375 25.46875 100.316406 20.382812 C 109.515625 15.390625 116.796875 8.390625 122.152344 -0.621094 C 124.164062 -3.925781 125.953125 -7.21875 127.523438 -10.503906 C 129.015625 -13.625 130.429688 -17.292969 131.765625 -21.507812 C 133.195312 -26.023438 134.636719 -31.300781 136.089844 -37.339844 C 137.585938 -43.5625 139.296875 -51.238281 141.214844 -60.359375 C 143.324219 -69.933594 145.195312 -78.101562 146.824219 -84.863281 C 148.511719 -91.871094 150.214844 -98.035156 151.929688 -103.347656 C 153.691406 -108.8125 155.5625 -113.742188 157.535156 -118.144531 C 159.410156 -122.316406 161.53125 -126.691406 163.902344 -131.261719 L 167.578125 -138.347656 L 175.554688 -138.65625 C 179.457031 -138.804688 182.875 -139.027344 185.8125 -139.320312 C 188.429688 -139.582031 190.867188 -139.976562 193.125 -140.507812 C 196.507812 -141.261719 198.859375 -142.246094 200.183594 -143.46875 C 200.3125 -143.589844 200.410156 -143.691406 200.472656 -143.777344 L 200.472656 -143.769531 C 200.460938 -143.746094 200.457031 -143.726562 200.453125 -143.714844 C 200.464844 -143.78125 200.472656 -143.875 200.472656 -144 C 200.472656 -143.46875 200.621094 -142.9375 200.917969 -142.40625 C 201.019531 -142.222656 201.121094 -142.078125 201.21875 -141.972656 C 201.1875 -142.003906 201.109375 -142.066406 200.984375 -142.160156 C 199.921875 -142.925781 198.214844 -143.308594 195.859375 -143.308594 C 192.570312 -143.308594 189.300781 -142.683594 186.058594 -141.441406 C 182.324219 -140.011719 178.121094 -137.625 173.441406 -134.285156 L 167.921875 -130.339844 L 161.433594 -132.335938 C 159.242188 -133.011719 157.371094 -133.605469 155.824219 -134.121094 C 154.121094 -134.6875 152.339844 -135.34375 150.484375 -136.085938 C 149.078125 -136.648438 147.429688 -137.257812 145.542969 -137.910156 C 143.25 -138.707031 140.46875 -139.753906 137.207031 -141.0625 C 132.71875 -142.765625 128.75 -144.191406 125.3125 -145.335938 C 122.054688 -146.421875 119.121094 -147.28125 116.515625 -147.917969 C 114.097656 -148.503906 111.765625 -148.929688 109.519531 -149.183594 C 107.222656 -149.445312 104.886719 -149.578125 102.511719 -149.578125 C 96.773438 -149.578125 91.464844 -148.664062 86.585938 -146.832031 C 81.734375 -145.015625 77.527344 -142.53125 73.96875 -139.386719 C 70.515625 -136.335938 67.824219 -132.824219 65.890625 -128.839844 C 64.074219 -125.105469 63.167969 -121.074219 63.167969 -116.746094 C 63.167969 -113.476562 63.761719 -110.453125 64.953125 -107.675781 C 66.1875 -104.792969 67.871094 -102.285156 70.003906 -100.152344 C 72.183594 -97.972656 74.753906 -96.222656 77.714844 -94.898438 C 80.4375 -93.683594 83.398438 -93.078125 86.59375 -93.078125 C 90.382812 -93.078125 94.285156 -93.683594 98.292969 -94.898438 C 102.445312 -96.15625 106.136719 -97.792969 109.371094 -99.808594 C 112.472656 -101.738281 114.941406 -103.753906 116.773438 -105.859375 C 117.199219 -106.347656 117.472656 -106.730469 117.589844 -107.003906 C 117.527344 -106.859375 117.496094 -106.648438 117.496094 -106.371094 C 117.496094 -104.507812 118.15625 -102.785156 119.472656 -101.207031 C 120.390625 -100.105469 121.523438 -99.242188 122.875 -98.621094 C 124.175781 -98.019531 125.507812 -97.71875 126.875 -97.71875 Z M 126.875 -97.71875 "/></g></g></g><g fill="#ff66c5" fill-opacity="1"><g transform="translate(177.62186, 209.925668)"><g><path d="M 3.71875 -66.109375 C 4.316406 -68.847656 4.613281 -70.449219 4.613281 -70.914062 C 4.613281 -69.800781 4.933594 -68.765625 5.582031 -67.8125 C 5.789062 -67.503906 6 -67.257812 6.207031 -67.074219 C 6.234375 -67.050781 6.25 -67.039062 6.25 -67.039062 C 6.195312 -67.078125 6.125 -67.121094 6.035156 -67.171875 L -11.304688 -76.972656 L 4.03125 -89.679688 C 17.824219 -101.109375 31.4375 -106.824219 44.863281 -106.824219 C 52.375 -106.824219 58.648438 -104.710938 63.691406 -100.480469 C 66.601562 -98.042969 68.796875 -95.097656 70.28125 -91.65625 C 71.648438 -88.476562 72.332031 -85.023438 72.332031 -81.285156 L 72.332031 -78.632812 C 72.332031 -76.390625 71.84375 -74.046875 70.867188 -71.609375 L 58.132812 -76.703125 L 71.546875 -73.835938 L 63.296875 -35.253906 L 63.238281 -35.023438 C 63.03125 -34.195312 62.882812 -33.453125 62.789062 -32.792969 C 62.71875 -32.3125 62.683594 -31.992188 62.683594 -31.839844 C 62.683594 -32.117188 62.609375 -32.476562 62.460938 -32.921875 C 62.191406 -33.738281 61.753906 -34.484375 61.148438 -35.164062 C 60.382812 -36.027344 59.460938 -36.679688 58.378906 -37.121094 C 57.601562 -37.4375 56.875 -37.597656 56.203125 -37.597656 C 55.824219 -37.597656 55.394531 -37.527344 54.914062 -37.382812 C 55.527344 -37.566406 57.589844 -38.269531 61.101562 -39.492188 L 63.289062 -40.253906 L 66.574219 -40.253906 C 71.90625 -40.253906 76.242188 -38.363281 79.574219 -34.585938 C 82.464844 -31.308594 83.910156 -27.257812 83.910156 -22.433594 C 83.910156 -16.222656 81.46875 -10.367188 76.585938 -4.875 C 73.109375 -0.964844 68.824219 2.550781 63.726562 5.671875 C 58.9375 8.601562 53.738281 11.035156 48.132812 12.96875 C 42.019531 15.078125 36.105469 16.132812 30.390625 16.132812 C 20.601562 16.132812 12.292969 13.234375 5.472656 7.441406 C 1.800781 4.324219 -0.992188 0.695312 -2.902344 -3.453125 C -4.808594 -7.585938 -5.757812 -12.0625 -5.757812 -16.882812 C -5.757812 -20.265625 -5.417969 -23.554688 -4.730469 -26.753906 L 3.710938 -66.078125 Z M 30.539062 -60.316406 L 22.097656 -21.003906 C 21.820312 -19.699219 21.679688 -18.328125 21.679688 -16.882812 C 21.679688 -16.078125 21.792969 -15.429688 22.019531 -14.9375 C 22.238281 -14.460938 22.640625 -13.972656 23.230469 -13.472656 C 24.933594 -12.027344 27.320312 -11.308594 30.390625 -11.308594 C 33.039062 -11.308594 35.972656 -11.863281 39.1875 -12.96875 C 42.90625 -14.253906 46.3125 -15.839844 49.398438 -17.730469 C 52.179688 -19.433594 54.40625 -21.226562 56.078125 -23.105469 C 56.453125 -23.527344 56.675781 -23.816406 56.75 -23.976562 C 56.566406 -23.570312 56.472656 -23.058594 56.472656 -22.433594 C 56.472656 -21.796875 56.582031 -21.105469 56.804688 -20.355469 C 57.226562 -18.917969 57.957031 -17.613281 59 -16.429688 C 60.199219 -15.070312 61.636719 -14.074219 63.308594 -13.441406 C 64.417969 -13.023438 65.507812 -12.8125 66.574219 -12.8125 L 65.609375 -12.8125 L 65.609375 -26.53125 L 70.117188 -13.574219 C 66.230469 -12.222656 63.789062 -11.398438 62.796875 -11.101562 C 60.707031 -10.472656 58.507812 -10.160156 56.203125 -10.160156 C 49.84375 -10.160156 44.65625 -12.417969 40.640625 -16.9375 C 37.042969 -20.980469 35.246094 -25.949219 35.246094 -31.839844 C 35.246094 -33.292969 35.371094 -34.90625 35.625 -36.675781 C 35.851562 -38.265625 36.183594 -39.933594 36.621094 -41.679688 L 49.929688 -38.351562 L 36.515625 -41.222656 L 44.960938 -80.714844 L 45.394531 -81.800781 C 45.058594 -80.96875 44.894531 -79.914062 44.894531 -78.632812 L 44.894531 -81.285156 C 44.894531 -81.34375 44.894531 -81.386719 44.890625 -81.417969 C 44.890625 -81.410156 44.894531 -81.390625 44.898438 -81.363281 C 44.929688 -81.195312 44.992188 -81.007812 45.078125 -80.804688 C 45.3125 -80.257812 45.640625 -79.808594 46.058594 -79.457031 C 46.210938 -79.328125 46.328125 -79.253906 46.402344 -79.230469 C 46.070312 -79.335938 45.554688 -79.386719 44.863281 -79.386719 C 38.03125 -79.386719 30.253906 -75.773438 21.539062 -68.550781 L 12.785156 -79.117188 L 19.535156 -91.058594 C 23.253906 -88.957031 26.179688 -86.332031 28.308594 -83.183594 C 30.804688 -79.496094 32.050781 -75.40625 32.050781 -70.914062 C 32.050781 -68.484375 31.542969 -64.941406 30.53125 -60.28125 Z M 48.964844 -152.414062 C 58.046875 -152.414062 65.574219 -149.785156 71.542969 -144.527344 C 78.019531 -138.820312 81.257812 -131.488281 81.257812 -122.535156 C 81.257812 -117.242188 79.945312 -112.265625 77.324219 -107.605469 C 74.933594 -103.355469 71.679688 -99.6875 67.570312 -96.601562 C 63.917969 -93.863281 59.808594 -91.660156 55.246094 -89.992188 C 50.429688 -88.226562 45.441406 -87.347656 40.28125 -87.347656 C 31.492188 -87.347656 24.246094 -90.046875 18.542969 -95.449219 C 12.632812 -101.046875 9.679688 -108.226562 9.679688 -116.984375 C 9.679688 -122.160156 10.894531 -127.039062 13.332031 -131.625 C 15.539062 -135.78125 18.542969 -139.441406 22.332031 -142.601562 C 25.875 -145.550781 29.855469 -147.902344 34.28125 -149.644531 C 38.953125 -151.492188 43.847656 -152.414062 48.964844 -152.414062 Z M 48.964844 -124.976562 C 47.328125 -124.976562 45.792969 -124.691406 44.355469 -124.125 C 42.667969 -123.457031 41.179688 -122.589844 39.898438 -121.523438 C 38.867188 -120.660156 38.085938 -119.738281 37.5625 -118.75 C 37.265625 -118.191406 37.117188 -117.601562 37.117188 -116.984375 C 37.117188 -116.09375 37.214844 -115.554688 37.414062 -115.367188 C 37.824219 -114.980469 38.78125 -114.785156 40.28125 -114.785156 C 42.199219 -114.785156 44.042969 -115.109375 45.820312 -115.757812 C 47.847656 -116.5 49.613281 -117.433594 51.105469 -118.554688 C 52.136719 -119.328125 52.90625 -120.164062 53.410156 -121.058594 C 53.683594 -121.542969 53.820312 -122.035156 53.820312 -122.535156 C 53.820312 -123.050781 53.773438 -123.414062 53.683594 -123.625 C 53.648438 -123.699219 53.558594 -123.800781 53.402344 -123.9375 C 52.617188 -124.628906 51.140625 -124.976562 48.964844 -124.976562 Z M 48.964844 -124.976562 "/></g></g></g><g fill="#ff66c5" fill-opacity="1"><g transform="translate(245.873626, 209.925668)"><g><path d="M 114.492188 -8.027344 C 112.304688 2.359375 109.273438 11.28125 105.402344 18.742188 C 101.425781 26.410156 96.089844 33.492188 89.398438 39.992188 L 89.285156 40.105469 L 89.164062 40.214844 C 81.398438 47.410156 72.800781 53.011719 63.367188 57.011719 C 53.695312 61.113281 43.589844 63.167969 33.046875 63.167969 C 19.832031 63.167969 8.984375 59.941406 0.503906 53.496094 C -4.238281 49.894531 -7.835938 45.582031 -10.296875 40.5625 C -12.738281 35.582031 -13.960938 30.101562 -13.960938 24.121094 C -13.960938 16.125 -11.984375 9.265625 -8.035156 3.542969 C -4.480469 -1.605469 1.292969 -6.386719 9.285156 -10.800781 L 25.21875 -19.609375 L 29.292969 -1.863281 C 29.707031 -0.0546875 30.203125 1.078125 30.777344 1.542969 C 31.324219 1.980469 32.484375 2.199219 34.25 2.199219 C 37.027344 2.199219 39.582031 1.089844 41.917969 -1.132812 C 45.109375 -4.167969 47.566406 -8.675781 49.289062 -14.65625 L 62.472656 -10.855469 L 70.019531 0.605469 C 62.640625 5.460938 56.183594 8.988281 50.644531 11.183594 C 44.359375 13.679688 37.929688 14.925781 31.355469 14.925781 C 20.980469 14.925781 12.460938 11.792969 5.800781 5.535156 C -1.101562 -0.953125 -4.554688 -9.230469 -4.554688 -19.296875 C -4.554688 -22.9375 -4.0625 -27.210938 -3.082031 -32.117188 L 4.6875 -67.582031 C 4.960938 -68.753906 5.09375 -69.867188 5.09375 -70.914062 C 5.09375 -70.09375 5.453125 -69.105469 6.164062 -67.945312 C 6.34375 -67.65625 6.503906 -67.421875 6.648438 -67.25 C 6.609375 -67.300781 6.523438 -67.390625 6.394531 -67.523438 C 5.898438 -68.03125 5.195312 -68.679688 4.28125 -69.472656 L -8.472656 -80.523438 L 4.953125 -90.753906 C 12.65625 -96.621094 19.59375 -100.828125 25.761719 -103.375 C 32.503906 -106.15625 39.433594 -107.550781 46.554688 -107.550781 C 53.78125 -107.550781 59.984375 -105.199219 65.171875 -100.5 C 70.75 -95.445312 73.539062 -89.199219 73.539062 -81.769531 C 73.539062 -79.578125 73.207031 -76.832031 72.546875 -73.53125 L 65.707031 -41.753906 L 65.652344 -41.539062 C 65.441406 -40.699219 65.335938 -39.960938 65.335938 -39.316406 C 65.335938 -41.175781 64.640625 -42.800781 63.25 -44.195312 C 61.855469 -45.585938 60.152344 -46.28125 58.132812 -46.28125 C 57.472656 -46.28125 56.929688 -46.164062 56.511719 -45.921875 C 56.234375 -45.765625 56.050781 -45.617188 55.964844 -45.476562 L 56.363281 -46.101562 L 56.824219 -46.679688 C 56.394531 -46.140625 56.121094 -45.695312 56.011719 -45.339844 C 56.335938 -46.371094 56.785156 -48.046875 57.363281 -50.363281 L 61.488281 -68.085938 L 61.582031 -68.414062 C 61.722656 -68.894531 61.828125 -69.410156 61.898438 -69.953125 C 61.980469 -70.558594 62.019531 -70.960938 62.019531 -71.15625 C 62.019531 -71.238281 62.019531 -71.292969 62.015625 -71.320312 C 62.023438 -71.242188 62.039062 -71.140625 62.066406 -71.019531 C 62.207031 -70.382812 62.480469 -69.722656 62.890625 -69.042969 C 63.183594 -68.554688 63.460938 -68.1875 63.722656 -67.941406 C 63.613281 -68.042969 63.394531 -68.203125 63.0625 -68.425781 L 47.683594 -78.679688 L 61.953125 -90.429688 C 75.421875 -101.519531 88.617188 -107.066406 101.546875 -107.066406 C 109.074219 -107.066406 115.398438 -104.902344 120.527344 -100.578125 C 123.398438 -98.152344 125.585938 -95.28125 127.082031 -91.960938 C 128.53125 -88.738281 129.257812 -85.261719 129.257812 -81.527344 L 129.257812 -78.753906 C 129.257812 -76.546875 128.863281 -74.257812 128.070312 -71.882812 L 115.054688 -76.222656 L 128.472656 -73.351562 L 114.480469 -7.984375 Z M 87.652344 -13.726562 L 101.800781 -79.835938 L 102.039062 -80.558594 C 101.894531 -80.117188 101.820312 -79.515625 101.820312 -78.753906 L 101.820312 -81.527344 C 101.820312 -81.332031 101.902344 -81.050781 102.066406 -80.683594 C 102.277344 -80.21875 102.53125 -79.859375 102.832031 -79.605469 C 102.925781 -79.527344 102.988281 -79.480469 103.019531 -79.472656 C 102.695312 -79.574219 102.203125 -79.628906 101.546875 -79.628906 C 95.179688 -79.628906 87.796875 -76.167969 79.394531 -69.25 L 70.671875 -79.839844 L 78.285156 -91.253906 C 81.925781 -88.828125 84.636719 -86.128906 86.417969 -83.160156 C 88.445312 -79.78125 89.457031 -75.78125 89.457031 -71.15625 C 89.457031 -69.746094 89.339844 -68.136719 89.097656 -66.328125 C 88.847656 -64.460938 88.472656 -62.640625 87.964844 -60.875 L 74.773438 -64.644531 L 88.136719 -61.53125 L 83.984375 -43.707031 C 83.277344 -40.878906 82.683594 -38.695312 82.199219 -37.15625 C 81.285156 -34.226562 79.96875 -31.6875 78.25 -29.539062 L 67.539062 -38.109375 L 79.113281 -30.746094 C 76.773438 -27.066406 73.777344 -24.1875 70.125 -22.097656 C 66.328125 -19.929688 62.328125 -18.84375 58.132812 -18.84375 C 52.574219 -18.84375 47.8125 -20.828125 43.847656 -24.792969 C 39.882812 -28.757812 37.898438 -33.597656 37.898438 -39.316406 C 37.898438 -42.210938 38.277344 -45.171875 39.03125 -48.191406 L 52.34375 -44.863281 L 38.929688 -47.753906 L 45.644531 -78.914062 C 45.949219 -80.4375 46.101562 -81.386719 46.101562 -81.769531 C 46.101562 -81.492188 46.183594 -81.171875 46.347656 -80.804688 C 46.488281 -80.492188 46.621094 -80.28125 46.746094 -80.167969 C 46.765625 -80.148438 46.816406 -80.125 46.898438 -80.097656 L 46.914062 -80.085938 C 46.824219 -80.101562 46.703125 -80.109375 46.554688 -80.109375 C 43.058594 -80.109375 39.617188 -79.410156 36.230469 -78.011719 C 32.265625 -76.378906 27.386719 -73.347656 21.582031 -68.925781 L 13.265625 -79.839844 L 22.25 -90.207031 C 25.726562 -87.195312 28.152344 -84.570312 29.535156 -82.328125 C 31.535156 -79.078125 32.535156 -75.273438 32.535156 -70.914062 C 32.535156 -67.78125 32.1875 -64.714844 31.492188 -61.707031 L 23.824219 -26.738281 C 23.199219 -23.605469 22.886719 -21.125 22.886719 -19.296875 C 22.886719 -17.140625 23.453125 -15.527344 24.59375 -14.457031 C 25.972656 -13.160156 28.226562 -12.511719 31.355469 -12.511719 C 34.433594 -12.511719 37.492188 -13.117188 40.53125 -14.320312 C 44.320312 -15.824219 49.121094 -18.488281 54.925781 -22.3125 L 85.949219 -42.742188 L 75.65625 -7.050781 C 72.554688 3.691406 67.617188 12.289062 60.835938 18.742188 C 53.199219 26.007812 44.339844 29.640625 34.25 29.640625 C 26.050781 29.640625 19.167969 27.40625 13.605469 22.941406 C 8.070312 18.5 4.382812 12.277344 2.546875 4.273438 L 15.917969 1.207031 L 22.554688 13.214844 C 18.328125 15.550781 15.65625 17.523438 14.546875 19.132812 C 13.835938 20.164062 13.476562 21.824219 13.476562 24.121094 C 13.476562 25.859375 13.765625 27.3125 14.339844 28.484375 C 14.894531 29.613281 15.816406 30.667969 17.105469 31.648438 C 20.683594 34.367188 25.996094 35.726562 33.046875 35.726562 C 39.867188 35.726562 46.40625 34.402344 52.652344 31.753906 C 59.140625 29 65.09375 25.113281 70.515625 20.089844 L 79.839844 30.152344 L 70.28125 20.308594 C 74.847656 15.875 78.4375 11.140625 81.050781 6.101562 C 83.769531 0.859375 85.96875 -5.734375 87.640625 -13.679688 Z M 87.652344 -13.726562 "/></g></g></g><g fill="#ff66c5" fill-opacity="1"><g transform="translate(362.600853, 209.925668)"><g><path d="M 119.5 -35.507812 C 118.769531 -32.34375 118.402344 -30.554688 118.402344 -30.152344 C 118.402344 -32.332031 117.648438 -34.136719 116.136719 -35.558594 C 114.863281 -36.757812 113.457031 -37.359375 111.921875 -37.359375 C 111.75 -37.359375 111.5 -37.285156 111.171875 -37.140625 L 112.050781 -37.53125 L 112.976562 -37.792969 C 114.765625 -38.304688 116.175781 -38.695312 117.199219 -38.964844 C 119.261719 -39.5 120.957031 -39.769531 122.292969 -39.769531 C 127.207031 -39.769531 131.40625 -38.027344 134.886719 -34.546875 C 138.371094 -31.0625 140.113281 -26.785156 140.113281 -21.707031 C 140.113281 -15.503906 137.539062 -9.671875 132.394531 -4.214844 C 128.875 -0.484375 124.5625 2.914062 119.460938 5.976562 C 114.601562 8.890625 109.332031 11.3125 103.660156 13.234375 C 97.488281 15.328125 91.558594 16.371094 85.871094 16.371094 C 76.453125 16.371094 68.554688 13.183594 62.179688 6.804688 C 55.800781 0.429688 52.613281 -7.46875 52.613281 -16.882812 L 52.613281 -19.417969 C 52.613281 -20.953125 52.738281 -22.601562 52.992188 -24.371094 L 66.574219 -22.433594 L 77.222656 -13.78125 C 75.152344 -11.234375 73.484375 -9.171875 72.222656 -7.589844 C 70.835938 -5.863281 69.613281 -4.375 68.546875 -3.132812 C 67.210938 -1.574219 65.890625 -0.203125 64.585938 0.984375 C 63.863281 1.644531 63.09375 2.378906 62.285156 3.1875 C 58.007812 7.464844 53.152344 10.792969 47.710938 13.171875 C 42.097656 15.628906 36.648438 16.855469 31.355469 16.855469 C 25.566406 16.855469 20.222656 15.621094 15.328125 13.160156 C 10.511719 10.734375 6.324219 7.207031 2.757812 2.582031 C -3.722656 -5.832031 -6.964844 -16.261719 -6.964844 -28.703125 C -6.964844 -38.488281 -5.117188 -48.050781 -1.417969 -57.390625 C 2.15625 -66.421875 6.839844 -74.496094 12.632812 -81.621094 C 18.617188 -88.980469 25.53125 -94.894531 33.371094 -99.359375 C 41.828125 -104.175781 50.644531 -106.585938 59.820312 -106.585938 C 73.429688 -106.585938 84.65625 -101.582031 93.496094 -91.578125 L 83.214844 -82.492188 L 75.183594 -93.613281 C 78.351562 -95.902344 81.125 -97.777344 83.503906 -99.242188 C 86.097656 -100.839844 88.464844 -102.117188 90.613281 -103.085938 C 93.261719 -104.277344 95.828125 -105.089844 98.320312 -105.53125 C 100.476562 -105.910156 102.757812 -106.101562 105.167969 -106.101562 C 111.714844 -106.101562 117.269531 -104.1875 121.828125 -100.355469 C 124.484375 -98.125 126.472656 -95.488281 127.792969 -92.445312 C 129.128906 -89.363281 129.691406 -86.082031 129.472656 -82.601562 L 115.78125 -83.457031 L 129.5 -83.457031 C 129.5 -80.507812 129.066406 -77.585938 128.195312 -74.691406 L 115.054688 -78.632812 L 128.445312 -75.648438 L 119.523438 -35.609375 Z M 92.742188 -41.578125 L 101.773438 -82.101562 L 101.914062 -82.574219 C 102.011719 -82.898438 102.058594 -83.191406 102.058594 -83.457031 L 102.058594 -83.886719 L 102.085938 -84.3125 C 102.03125 -83.40625 102.207031 -82.476562 102.621094 -81.523438 C 103.015625 -80.613281 103.535156 -79.886719 104.179688 -79.34375 C 104.546875 -79.039062 104.925781 -78.820312 105.320312 -78.695312 C 105.402344 -78.667969 105.460938 -78.652344 105.5 -78.648438 C 105.421875 -78.65625 105.3125 -78.664062 105.167969 -78.664062 C 104.359375 -78.664062 103.667969 -78.613281 103.089844 -78.511719 C 102.84375 -78.46875 102.441406 -78.316406 101.871094 -78.0625 C 100.800781 -77.582031 99.472656 -76.851562 97.882812 -75.875 C 96.082031 -74.765625 93.871094 -73.265625 91.25 -71.371094 L 81.167969 -64.089844 L 72.9375 -73.40625 C 69.554688 -77.234375 65.183594 -79.144531 59.820312 -79.144531 C 55.488281 -79.144531 51.199219 -77.9375 46.953125 -75.515625 C 42.085938 -72.746094 37.742188 -69.011719 33.921875 -64.308594 C 29.90625 -59.371094 26.628906 -53.699219 24.09375 -47.292969 C 21.679688 -41.195312 20.472656 -35 20.472656 -28.703125 C 20.472656 -22.492188 21.8125 -17.644531 24.496094 -14.160156 C 25.515625 -12.835938 26.574219 -11.898438 27.667969 -11.351562 C 28.679688 -10.839844 29.910156 -10.582031 31.355469 -10.582031 C 32.820312 -10.582031 34.605469 -11.042969 36.710938 -11.964844 C 38.992188 -12.960938 41.046875 -14.378906 42.882812 -16.214844 C 44 -17.332031 45.082031 -18.367188 46.128906 -19.316406 C 46.589844 -19.738281 47.121094 -20.296875 47.714844 -20.988281 C 48.578125 -21.996094 49.605469 -23.246094 50.796875 -24.730469 C 52.101562 -26.367188 53.8125 -28.484375 55.925781 -31.082031 L 87.160156 -69.523438 L 80.15625 -20.492188 C 80.085938 -20.011719 80.050781 -19.652344 80.050781 -19.417969 L 80.050781 -16.882812 C 80.050781 -15.042969 80.5625 -13.613281 81.582031 -12.59375 C 82.601562 -11.574219 84.03125 -11.066406 85.871094 -11.066406 C 88.542969 -11.066406 91.535156 -11.628906 94.851562 -12.75 C 98.667969 -14.046875 102.164062 -15.644531 105.34375 -17.554688 C 108.28125 -19.316406 110.644531 -21.144531 112.429688 -23.039062 C 112.816406 -23.445312 113.035156 -23.707031 113.089844 -23.820312 C 112.8125 -23.257812 112.671875 -22.550781 112.671875 -21.707031 C 112.671875 -19.207031 113.609375 -17.019531 115.484375 -15.144531 C 117.359375 -13.269531 119.628906 -12.332031 122.292969 -12.332031 C 123.214844 -12.332031 124.03125 -12.410156 124.742188 -12.566406 C 124.632812 -12.542969 124.429688 -12.492188 124.128906 -12.414062 C 123.304688 -12.199219 122.101562 -11.863281 120.511719 -11.410156 L 116.746094 -24.601562 L 122.316406 -12.066406 C 119.09375 -10.636719 115.628906 -9.917969 111.921875 -9.917969 C 106.203125 -9.917969 101.339844 -11.804688 97.332031 -15.578125 C 93.085938 -19.574219 90.964844 -24.429688 90.964844 -30.152344 C 90.964844 -32.640625 91.5625 -36.480469 92.761719 -41.679688 Z M 65.851562 -54.058594 C 66.265625 -54.058594 66.671875 -54.160156 67.074219 -54.363281 C 67.1875 -54.421875 67.273438 -54.472656 67.324219 -54.515625 C 67.253906 -54.457031 67.15625 -54.359375 67.035156 -54.214844 C 66.546875 -53.636719 66.300781 -53.011719 66.300781 -52.34375 C 66.300781 -52.144531 66.308594 -51.992188 66.324219 -51.882812 C 66.316406 -51.933594 66.296875 -52.023438 66.257812 -52.148438 C 66.03125 -52.933594 65.589844 -53.707031 64.933594 -54.464844 C 64.097656 -55.421875 63.113281 -56.121094 61.976562 -56.558594 C 61.390625 -56.78125 60.910156 -56.894531 60.542969 -56.894531 C 59.503906 -56.894531 58.628906 -56.671875 57.921875 -56.222656 C 58.023438 -56.289062 58.175781 -56.453125 58.371094 -56.714844 C 58.753906 -57.222656 59.074219 -57.839844 59.332031 -58.558594 C 59.515625 -59.066406 59.609375 -59.648438 59.609375 -60.300781 C 59.609375 -60.0625 59.6875 -59.707031 59.84375 -59.234375 C 60.214844 -58.121094 60.851562 -57.113281 61.757812 -56.207031 C 62.660156 -55.304688 63.667969 -54.667969 64.78125 -54.296875 C 65.257812 -54.140625 65.613281 -54.058594 65.851562 -54.058594 Z M 65.851562 -81.5 C 72.128906 -81.5 77.234375 -79.535156 81.160156 -75.609375 C 85.082031 -71.6875 87.046875 -66.582031 87.046875 -60.300781 C 87.046875 -56.453125 86.414062 -52.773438 85.148438 -49.261719 C 83.960938 -45.960938 82.351562 -42.957031 80.324219 -40.25 C 78.105469 -37.296875 75.523438 -34.886719 72.574219 -33.023438 C 68.808594 -30.644531 64.796875 -29.457031 60.542969 -29.457031 C 53.71875 -29.457031 48.277344 -31.796875 44.214844 -36.472656 C 40.648438 -40.578125 38.863281 -45.871094 38.863281 -52.34375 C 38.863281 -59.710938 41.273438 -66.246094 46.089844 -71.9375 C 48.613281 -74.917969 51.476562 -77.222656 54.675781 -78.84375 C 58.171875 -80.613281 61.898438 -81.5 65.851562 -81.5 Z M 65.851562 -81.5 "/></g></g></g><g fill="#ff66c5" fill-opacity="1"><g transform="translate(486.804564, 209.925668)"><g><path d="M 38.835938 -53.519531 C 47.742188 -53.519531 55.28125 -50.644531 61.453125 -44.890625 C 67.902344 -38.882812 71.125 -31.316406 71.125 -22.191406 C 71.125 -17.046875 70.132812 -12.226562 68.148438 -7.730469 C 66.253906 -3.429688 63.613281 0.410156 60.234375 3.792969 C 56.816406 7.207031 52.894531 9.867188 48.460938 11.765625 C 43.921875 13.710938 39.105469 14.683594 34.011719 14.683594 C 24.691406 14.683594 16.960938 11.539062 10.8125 5.246094 C 4.75 -0.957031 1.71875 -8.734375 1.71875 -18.089844 C 1.71875 -23.144531 2.84375 -27.921875 5.097656 -32.425781 C 7.128906 -36.488281 9.839844 -40.089844 13.230469 -43.234375 C 16.5625 -46.316406 20.359375 -48.773438 24.625 -50.601562 C 29.164062 -52.546875 33.902344 -53.519531 38.835938 -53.519531 Z M 38.835938 -26.078125 C 37.65625 -26.078125 36.523438 -25.847656 35.433594 -25.378906 C 34.074219 -24.796875 32.886719 -24.035156 31.875 -23.097656 C 30.925781 -22.21875 30.179688 -21.238281 29.636719 -20.15625 C 29.316406 -19.515625 29.15625 -18.824219 29.15625 -18.089844 C 29.15625 -16.1875 29.582031 -14.804688 30.433594 -13.929688 C 31.203125 -13.148438 32.394531 -12.753906 34.011719 -12.753906 C 35.347656 -12.753906 36.5625 -12.988281 37.652344 -13.453125 C 38.847656 -13.964844 39.90625 -14.683594 40.832031 -15.609375 C 41.792969 -16.570312 42.53125 -17.636719 43.046875 -18.804688 C 43.472656 -19.773438 43.6875 -20.902344 43.6875 -22.191406 C 43.6875 -23.359375 43.375 -24.234375 42.746094 -24.816406 C 41.84375 -25.660156 40.539062 -26.078125 38.835938 -26.078125 Z M 16.4375 -86.230469 C 16.613281 -92.929688 17.148438 -99.144531 18.042969 -104.871094 C 19.027344 -111.175781 20.558594 -116.714844 22.632812 -121.492188 C 25.5625 -128.574219 30.476562 -134.414062 37.375 -139.015625 C 44.261719 -143.605469 51.664062 -145.902344 59.578125 -145.902344 C 69.261719 -145.902344 77.40625 -142.664062 84.011719 -136.191406 C 90.699219 -129.644531 94.042969 -121.554688 94.042969 -111.921875 C 94.042969 -110.09375 93.984375 -108.507812 93.875 -107.164062 C 93.726562 -105.386719 93.386719 -103.503906 92.855469 -101.511719 C 92.433594 -99.929688 91.792969 -97.949219 90.9375 -95.574219 C 90.125 -93.308594 88.9375 -90.363281 87.382812 -86.738281 L 74.773438 -92.140625 L 87.582031 -87.222656 L 72.386719 -47.664062 C 70.179688 -41.871094 67.195312 -37.542969 63.429688 -34.675781 C 58.734375 -31.097656 53.308594 -29.722656 47.152344 -30.542969 L 48.964844 -44.140625 L 48.964844 -30.421875 L 36.421875 -30.421875 C 30.394531 -30.421875 25.46875 -32.269531 21.648438 -35.960938 C 17.6875 -39.78125 15.707031 -44.761719 15.707031 -50.894531 L 15.707031 -55.15625 L 16.433594 -86.191406 Z M 43.867188 -85.546875 L 43.144531 -54.675781 L 29.425781 -54.996094 L 43.148438 -54.996094 L 43.148438 -50.894531 C 43.148438 -51.304688 43.042969 -51.8125 42.832031 -52.417969 C 42.410156 -53.644531 41.699219 -54.738281 40.707031 -55.699219 C 39.761719 -56.613281 38.714844 -57.253906 37.566406 -57.621094 C 37.074219 -57.78125 36.691406 -57.859375 36.421875 -57.859375 L 49.875 -57.859375 L 50.777344 -57.738281 C 50.316406 -57.800781 49.78125 -57.761719 49.167969 -57.617188 C 48.296875 -57.410156 47.507812 -57.039062 46.800781 -56.5 C 46.351562 -56.160156 46.0625 -55.886719 45.929688 -55.679688 C 46.171875 -56.058594 46.453125 -56.664062 46.769531 -57.503906 L 62.0625 -97.304688 L 62.164062 -97.546875 C 63.503906 -100.671875 64.492188 -103.113281 65.121094 -104.867188 C 65.714844 -106.511719 66.121094 -107.75 66.34375 -108.582031 C 66.453125 -109 66.515625 -109.289062 66.53125 -109.441406 C 66.578125 -110.027344 66.601562 -110.851562 66.601562 -111.921875 C 66.601562 -113.867188 66.007812 -115.421875 64.8125 -116.59375 C 63.539062 -117.839844 61.792969 -118.460938 59.578125 -118.460938 C 57.203125 -118.460938 54.875 -117.703125 52.59375 -116.183594 C 50.328125 -114.671875 48.726562 -112.792969 47.796875 -110.550781 C 46.65625 -107.929688 45.777344 -104.625 45.152344 -100.636719 C 44.441406 -96.074219 44.011719 -91.03125 43.867188 -85.507812 Z M 43.867188 -85.546875 "/></g></g></g><g fill="#fff2f4" fill-opacity="1"><g transform="translate(5.183747, 209.925668)"><g><path d="M 126.875 -111.4375 C 128.15625 -111.4375 129.195312 -110.953125 130 -109.984375 C 130.8125 -109.023438 131.21875 -107.820312 131.21875 -106.375 C 131.21875 -103.15625 129.847656 -99.976562 127.109375 -96.84375 C 124.378906 -93.707031 120.882812 -90.8125 116.625 -88.15625 C 112.363281 -85.507812 107.578125 -83.378906 102.265625 -81.765625 C 96.960938 -80.160156 91.738281 -79.359375 86.59375 -79.359375 C 81.445312 -79.359375 76.617188 -80.363281 72.109375 -82.375 C 67.609375 -84.382812 63.671875 -87.078125 60.296875 -90.453125 C 56.921875 -93.828125 54.269531 -97.765625 52.34375 -102.265625 C 50.414062 -106.773438 49.453125 -111.601562 49.453125 -116.75 C 49.453125 -123.175781 50.816406 -129.203125 53.546875 -134.828125 C 56.273438 -140.460938 60.050781 -145.410156 64.875 -149.671875 C 69.707031 -153.929688 75.335938 -157.265625 81.765625 -159.671875 C 88.203125 -162.085938 95.117188 -163.296875 102.515625 -163.296875 C 105.410156 -163.296875 108.265625 -163.132812 111.078125 -162.8125 C 113.890625 -162.488281 116.78125 -161.960938 119.75 -161.234375 C 122.726562 -160.515625 126.023438 -159.550781 129.640625 -158.34375 C 133.265625 -157.144531 137.40625 -155.660156 142.0625 -153.890625 C 145.28125 -152.597656 147.929688 -151.585938 150.015625 -150.859375 C 152.109375 -150.140625 153.957031 -149.457031 155.5625 -148.8125 C 157.175781 -148.175781 158.707031 -147.613281 160.15625 -147.125 C 161.601562 -146.644531 163.375 -146.085938 165.46875 -145.453125 C 171.09375 -149.460938 176.316406 -152.390625 181.140625 -154.234375 C 185.960938 -156.085938 190.867188 -157.015625 195.859375 -157.015625 C 201.160156 -157.015625 205.539062 -155.769531 209 -153.28125 C 212.457031 -150.789062 214.1875 -147.695312 214.1875 -144 C 214.1875 -139.820312 212.617188 -136.285156 209.484375 -133.390625 C 206.347656 -130.492188 201.882812 -128.398438 196.09375 -127.109375 C 193.363281 -126.472656 190.390625 -125.992188 187.171875 -125.671875 C 183.953125 -125.347656 180.253906 -125.101562 176.078125 -124.9375 C 173.828125 -120.601562 171.816406 -116.460938 170.046875 -112.515625 C 168.273438 -108.578125 166.585938 -104.113281 164.984375 -99.125 C 163.378906 -94.144531 161.769531 -88.316406 160.15625 -81.640625 C 158.550781 -74.972656 156.703125 -66.894531 154.609375 -57.40625 C 152.679688 -48.238281 150.953125 -40.476562 149.421875 -34.125 C 147.898438 -27.78125 146.375 -22.191406 144.84375 -17.359375 C 143.3125 -12.535156 141.660156 -8.273438 139.890625 -4.578125 C 138.128906 -0.878906 136.125 2.816406 133.875 6.515625 C 127.28125 17.609375 118.273438 26.25 106.859375 32.4375 C 95.441406 38.632812 82.976562 41.734375 69.46875 41.734375 C 60.625 41.734375 52.539062 40.40625 45.21875 37.75 C 37.90625 35.09375 31.59375 31.351562 26.28125 26.53125 C 20.976562 21.707031 16.878906 15.914062 13.984375 9.15625 C 11.085938 2.40625 9.640625 -5.066406 9.640625 -13.265625 C 9.640625 -21.460938 11.328125 -29.140625 14.703125 -36.296875 C 18.085938 -43.453125 22.671875 -49.679688 28.453125 -54.984375 C 34.242188 -60.296875 41.078125 -64.476562 48.953125 -67.53125 C 56.835938 -70.59375 65.285156 -72.125 74.296875 -72.125 C 83.460938 -72.125 88.046875 -69.789062 88.046875 -65.125 C 88.046875 -64.644531 88.003906 -64.203125 87.921875 -63.796875 C 87.835938 -63.390625 87.59375 -62.90625 87.1875 -62.34375 C 86.789062 -61.78125 86.148438 -61.054688 85.265625 -60.171875 C 84.378906 -59.296875 83.132812 -58.050781 81.53125 -56.4375 C 79.914062 -54.832031 79.109375 -52.742188 79.109375 -50.171875 C 79.109375 -46.796875 80.4375 -43.976562 83.09375 -41.71875 C 85.75 -39.46875 89.003906 -38.34375 92.859375 -38.34375 C 98.972656 -38.34375 104.441406 -40.472656 109.265625 -44.734375 C 114.085938 -49.003906 119.070312 -55.878906 124.21875 -65.359375 C 125.664062 -68.253906 126.867188 -70.75 127.828125 -72.84375 C 128.796875 -74.9375 129.84375 -77.304688 130.96875 -79.953125 C 132.09375 -82.609375 133.378906 -85.90625 134.828125 -89.84375 C 136.273438 -93.78125 138.125 -98.96875 140.375 -105.40625 C 141.1875 -107.5 142.4375 -110.3125 144.125 -113.84375 C 145.8125 -117.382812 147.941406 -121.488281 150.515625 -126.15625 L 146.171875 -126.390625 L 138.203125 -127.359375 C 136.753906 -127.515625 135.382812 -127.632812 134.09375 -127.71875 C 132.8125 -127.800781 131.53125 -127.84375 130.25 -127.84375 C 125.90625 -127.84375 122.363281 -126.753906 119.625 -124.578125 C 116.894531 -122.410156 115.53125 -119.554688 115.53125 -116.015625 C 115.53125 -112.640625 117.625 -110.953125 121.8125 -110.953125 C 122.613281 -110.953125 123.253906 -111.03125 123.734375 -111.1875 Z M 126.875 -111.4375 "/></g></g></g><g fill="#fff2f4" fill-opacity="1"><g transform="translate(177.62186, 209.925668)"><g><path d="M 17.125 -63.1875 C 17.925781 -66.894531 18.328125 -69.46875 18.328125 -70.90625 C 18.328125 -74.289062 16.476562 -77.023438 12.78125 -79.109375 C 24.039062 -88.441406 34.734375 -93.109375 44.859375 -93.109375 C 49.046875 -93.109375 52.382812 -92.0625 54.875 -89.96875 C 57.363281 -87.875 58.609375 -84.976562 58.609375 -81.28125 C 58.609375 -80 58.609375 -79.113281 58.609375 -78.625 C 58.609375 -78.144531 58.445312 -77.503906 58.125 -76.703125 L 49.921875 -38.34375 C 49.609375 -37.0625 49.367188 -35.859375 49.203125 -34.734375 C 49.046875 -33.609375 48.96875 -32.644531 48.96875 -31.84375 C 48.96875 -29.425781 49.609375 -27.492188 50.890625 -26.046875 C 52.179688 -24.597656 53.953125 -23.875 56.203125 -23.875 C 57.160156 -23.875 58.039062 -23.992188 58.84375 -24.234375 C 59.65625 -24.484375 61.910156 -25.25 65.609375 -26.53125 L 66.578125 -26.53125 C 68.984375 -26.53125 70.1875 -25.164062 70.1875 -22.4375 C 70.1875 -19.695312 68.898438 -16.878906 66.328125 -13.984375 C 63.753906 -11.085938 60.5 -8.429688 56.5625 -6.015625 C 52.625 -3.609375 48.320312 -1.601562 43.65625 0 C 38.988281 1.601562 34.566406 2.40625 30.390625 2.40625 C 23.960938 2.40625 18.613281 0.597656 14.34375 -3.015625 C 10.082031 -6.628906 7.953125 -11.253906 7.953125 -16.890625 C 7.953125 -19.296875 8.195312 -21.625 8.6875 -23.875 Z M 48.96875 -138.6875 C 54.59375 -138.6875 59.09375 -137.195312 62.46875 -134.21875 C 65.84375 -131.25 67.53125 -127.351562 67.53125 -122.53125 C 67.53125 -119.632812 66.804688 -116.898438 65.359375 -114.328125 C 63.910156 -111.753906 61.898438 -109.503906 59.328125 -107.578125 C 56.765625 -105.648438 53.832031 -104.082031 50.53125 -102.875 C 47.238281 -101.664062 43.820312 -101.0625 40.28125 -101.0625 C 35.132812 -101.0625 31.03125 -102.507812 27.96875 -105.40625 C 24.914062 -108.300781 23.390625 -112.160156 23.390625 -116.984375 C 23.390625 -119.878906 24.070312 -122.613281 25.4375 -125.1875 C 26.8125 -127.757812 28.703125 -130.050781 31.109375 -132.0625 C 33.523438 -134.070312 36.257812 -135.675781 39.3125 -136.875 C 42.375 -138.082031 45.59375 -138.6875 48.96875 -138.6875 Z M 48.96875 -138.6875 "/></g></g></g><g fill="#fff2f4" fill-opacity="1"><g transform="translate(245.873626, 209.925668)"><g><path d="M 101.0625 -10.859375 C 99.132812 -1.691406 96.519531 6.066406 93.21875 12.421875 C 89.925781 18.773438 85.46875 24.6875 79.84375 30.15625 C 73.25 36.257812 65.96875 41 58 44.375 C 50.039062 47.757812 41.722656 49.453125 33.046875 49.453125 C 22.910156 49.453125 14.828125 47.160156 8.796875 42.578125 C 2.773438 37.992188 -0.234375 31.84375 -0.234375 24.125 C -0.234375 18.976562 0.925781 14.710938 3.25 11.328125 C 5.582031 7.953125 9.804688 4.578125 15.921875 1.203125 C 18.171875 11.015625 24.28125 15.921875 34.25 15.921875 C 40.6875 15.921875 46.394531 13.546875 51.375 8.796875 C 56.363281 4.054688 60.0625 -2.492188 62.46875 -10.859375 C 55.875 -6.515625 50.242188 -3.414062 45.578125 -1.5625 C 40.921875 0.28125 36.179688 1.203125 31.359375 1.203125 C 24.597656 1.203125 19.207031 -0.679688 15.1875 -4.453125 C 11.175781 -8.234375 9.171875 -13.179688 9.171875 -19.296875 C 9.171875 -22.023438 9.570312 -25.398438 10.375 -29.421875 L 18.09375 -64.640625 C 18.570312 -66.734375 18.8125 -68.820312 18.8125 -70.90625 C 18.8125 -72.675781 18.488281 -74.082031 17.84375 -75.125 C 17.207031 -76.175781 15.679688 -77.75 13.265625 -79.84375 C 20.015625 -84.988281 25.921875 -88.601562 30.984375 -90.6875 C 36.054688 -92.78125 41.242188 -93.828125 46.546875 -93.828125 C 50.242188 -93.828125 53.378906 -92.660156 55.953125 -90.328125 C 58.523438 -87.992188 59.8125 -85.140625 59.8125 -81.765625 C 59.8125 -80.484375 59.570312 -78.632812 59.09375 -76.21875 L 52.34375 -44.859375 C 51.863281 -42.929688 51.625 -41.082031 51.625 -39.3125 C 51.625 -37.382812 52.265625 -35.773438 53.546875 -34.484375 C 54.835938 -33.203125 56.363281 -32.5625 58.125 -32.5625 C 59.894531 -32.5625 61.625 -33.039062 63.3125 -34 C 65 -34.96875 66.40625 -36.335938 67.53125 -38.109375 C 68.175781 -38.910156 68.695312 -39.953125 69.09375 -41.234375 C 69.5 -42.523438 70.023438 -44.457031 70.671875 -47.03125 L 74.765625 -64.640625 C 75.085938 -65.765625 75.328125 -66.929688 75.484375 -68.140625 C 75.648438 -69.347656 75.734375 -70.351562 75.734375 -71.15625 C 75.734375 -73.25 75.367188 -74.894531 74.640625 -76.09375 C 73.921875 -77.300781 72.597656 -78.550781 70.671875 -79.84375 C 81.609375 -88.84375 91.898438 -93.34375 101.546875 -93.34375 C 105.722656 -93.34375 109.097656 -92.253906 111.671875 -90.078125 C 114.242188 -87.910156 115.53125 -85.0625 115.53125 -81.53125 C 115.53125 -80.40625 115.53125 -79.476562 115.53125 -78.75 C 115.53125 -78.03125 115.367188 -77.1875 115.046875 -76.21875 Z M 101.0625 -10.859375 "/></g></g></g><g fill="#fff2f4" fill-opacity="1"><g transform="translate(362.600853, 209.925668)"><g><path d="M 106.125 -38.59375 C 105.164062 -34.414062 104.6875 -31.601562 104.6875 -30.15625 C 104.6875 -28.382812 105.367188 -26.851562 106.734375 -25.5625 C 108.097656 -24.28125 109.828125 -23.640625 111.921875 -23.640625 C 113.691406 -23.640625 115.300781 -23.960938 116.75 -24.609375 C 120.125 -25.566406 121.972656 -26.046875 122.296875 -26.046875 C 123.421875 -26.046875 124.382812 -25.644531 125.1875 -24.84375 C 125.988281 -24.039062 126.390625 -22.992188 126.390625 -21.703125 C 126.390625 -19.128906 125.0625 -16.4375 122.40625 -13.625 C 119.757812 -10.8125 116.425781 -8.195312 112.40625 -5.78125 C 108.382812 -3.375 104 -1.367188 99.25 0.234375 C 94.507812 1.847656 90.050781 2.65625 85.875 2.65625 C 80.238281 2.65625 75.570312 0.804688 71.875 -2.890625 C 68.175781 -6.585938 66.328125 -11.253906 66.328125 -16.890625 C 66.328125 -17.691406 66.328125 -18.535156 66.328125 -19.421875 C 66.328125 -20.304688 66.410156 -21.3125 66.578125 -22.4375 C 64.484375 -19.863281 62.789062 -17.769531 61.5 -16.15625 C 60.21875 -14.550781 59.09375 -13.1875 58.125 -12.0625 C 57.164062 -10.9375 56.242188 -9.96875 55.359375 -9.15625 C 54.472656 -8.351562 53.546875 -7.472656 52.578125 -6.515625 C 49.523438 -3.453125 46.066406 -1.078125 42.203125 0.609375 C 38.347656 2.296875 34.734375 3.140625 31.359375 3.140625 C 24.117188 3.140625 18.207031 0.164062 13.625 -5.78125 C 9.039062 -11.738281 6.75 -19.378906 6.75 -28.703125 C 6.75 -36.742188 8.273438 -44.625 11.328125 -52.34375 C 14.390625 -60.0625 18.367188 -66.9375 23.265625 -72.96875 C 28.171875 -79 33.800781 -83.820312 40.15625 -87.4375 C 46.507812 -91.050781 53.0625 -92.859375 59.8125 -92.859375 C 69.300781 -92.859375 77.101562 -89.398438 83.21875 -82.484375 C 86.113281 -84.578125 88.601562 -86.265625 90.6875 -87.546875 C 92.78125 -88.835938 94.628906 -89.84375 96.234375 -90.5625 C 97.847656 -91.289062 99.335938 -91.773438 100.703125 -92.015625 C 102.066406 -92.253906 103.554688 -92.375 105.171875 -92.375 C 108.378906 -92.375 110.988281 -91.53125 113 -89.84375 C 115.007812 -88.15625 115.9375 -86.023438 115.78125 -83.453125 C 115.78125 -81.847656 115.535156 -80.238281 115.046875 -78.625 Z M 65.84375 -67.78125 C 62.3125 -67.78125 59.21875 -66.210938 56.5625 -63.078125 C 53.90625 -59.941406 52.578125 -56.363281 52.578125 -52.34375 C 52.578125 -46.226562 55.234375 -43.171875 60.546875 -43.171875 C 62.148438 -43.171875 63.710938 -43.648438 65.234375 -44.609375 C 66.765625 -45.578125 68.132812 -46.863281 69.34375 -48.46875 C 70.550781 -50.082031 71.515625 -51.894531 72.234375 -53.90625 C 72.960938 -55.914062 73.328125 -58.046875 73.328125 -60.296875 C 73.328125 -65.285156 70.832031 -67.78125 65.84375 -67.78125 Z M 65.84375 -67.78125 "/></g></g></g><g fill="#fff2f4" fill-opacity="1"><g transform="translate(486.804564, 209.925668)"><g><path d="M 38.828125 -39.796875 C 44.140625 -39.796875 48.5625 -38.144531 52.09375 -34.84375 C 55.632812 -31.550781 57.40625 -27.332031 57.40625 -22.1875 C 57.40625 -18.96875 56.800781 -15.992188 55.59375 -13.265625 C 54.382812 -10.535156 52.695312 -8.082031 50.53125 -5.90625 C 48.363281 -3.738281 45.867188 -2.050781 43.046875 -0.84375 C 40.234375 0.363281 37.222656 0.96875 34.015625 0.96875 C 28.546875 0.96875 24.082031 -0.796875 20.625 -4.328125 C 17.164062 -7.867188 15.4375 -12.457031 15.4375 -18.09375 C 15.4375 -20.988281 16.078125 -23.722656 17.359375 -26.296875 C 18.648438 -28.867188 20.378906 -31.160156 22.546875 -33.171875 C 24.722656 -35.179688 27.21875 -36.785156 30.03125 -37.984375 C 32.84375 -39.191406 35.773438 -39.796875 38.828125 -39.796875 Z M 30.15625 -85.875 C 30.3125 -91.976562 30.789062 -97.601562 31.59375 -102.75 C 32.394531 -107.894531 33.601562 -112.316406 35.21875 -116.015625 C 37.144531 -120.679688 40.398438 -124.539062 44.984375 -127.59375 C 49.566406 -130.644531 54.429688 -132.171875 59.578125 -132.171875 C 65.523438 -132.171875 70.46875 -130.238281 74.40625 -126.375 C 78.351562 -122.519531 80.328125 -117.703125 80.328125 -111.921875 C 80.328125 -110.472656 80.285156 -109.265625 80.203125 -108.296875 C 80.117188 -107.335938 79.914062 -106.253906 79.59375 -105.046875 C 79.269531 -103.835938 78.742188 -102.226562 78.015625 -100.21875 C 77.296875 -98.207031 76.210938 -95.515625 74.765625 -92.140625 L 59.578125 -52.578125 C 58.285156 -49.203125 56.796875 -46.867188 55.109375 -45.578125 C 53.421875 -44.296875 51.375 -43.816406 48.96875 -44.140625 L 36.421875 -44.140625 C 31.753906 -44.140625 29.421875 -46.390625 29.421875 -50.890625 L 29.421875 -55 Z M 30.15625 -85.875 "/></g></g></g></g></g><g transform="matrix(1, 0, 0, 1, 444, 856)"><g clip-path="url(#8c57663046)"><g fill="#ff66c4" fill-opacity="1"><g transform="translate(135.132757, 55.039374)"><g><path d="M 27.042969 6.710938 L 16.539062 6.710938 L 15.179688 -18.917969 L 21.878906 -19.273438 L 28.277344 -17.242188 L 25.882812 -9.703125 L 19.941406 6.710938 L -6.351562 6.710938 L 10.578125 -39.988281 L 34.816406 -39.988281 L 35.945312 -12.027344 L 29.242188 -11.757812 L 23.910156 -15.835938 L 42.386719 -39.988281 L 68.359375 -39.988281 L 51.429688 6.710938 L 25.144531 6.710938 L 32.746094 -14.285156 L 35.871094 -21.839844 L 42.070312 -19.273438 L 47.363281 -15.144531 L 30.320312 6.710938 Z M 27.042969 -6.710938 L 27.042969 0 L 21.75 -4.128906 L 36.78125 -23.398438 L 48.273438 -16.707031 L 45.207031 -9.292969 L 39.003906 -11.859375 L 45.316406 -9.574219 L 41.019531 2.285156 L 34.710938 0 L 34.710938 -6.710938 L 46.722656 -6.710938 L 46.722656 0 L 40.414062 -2.289062 L 52.480469 -35.566406 L 58.789062 -33.277344 L 58.789062 -26.566406 L 45.703125 -26.566406 L 45.703125 -33.277344 L 51.03125 -29.203125 L 23.285156 7.078125 L 21.667969 -33.007812 L 28.371094 -33.277344 L 28.371094 -26.566406 L 15.285156 -26.566406 L 15.285156 -33.277344 L 21.59375 -30.992188 L 9.53125 2.289062 L 3.21875 0 L 3.21875 -6.710938 L 15.234375 -6.710938 L 15.234375 0 L 8.921875 -2.285156 L 13.21875 -14.144531 L 19.527344 -11.859375 L 13.132812 -13.890625 L 15.484375 -21.300781 L 28.582031 -19.628906 L 29.601562 -0.355469 L 22.902344 0 L 22.902344 -6.710938 Z M 27.042969 -6.710938 "/></g></g></g><g fill="#ff66c4" fill-opacity="1"><g transform="translate(188.221346, 55.039374)"><g><path d="M 58.671875 -28.121094 L 36.484375 -6.90625 L 31.847656 -11.757812 L 38.160156 -9.480469 L 35.414062 -1.859375 L 35.371094 -1.75 C 34.445312 0.5625 32.90625 2.324219 30.753906 3.542969 L 30.621094 3.617188 L 26.753906 5.578125 L 23.71875 -0.410156 L 27.238281 5.304688 C 25.714844 6.242188 24.046875 6.710938 22.238281 6.710938 L 6.035156 6.710938 L 13.523438 -14.035156 L 19.835938 -11.757812 L 13.445312 -9.710938 L 5.976562 -33.011719 L 8.300781 -39.988281 L 32.082031 -39.988281 L 35.847656 -22.859375 L 29.292969 -21.417969 L 24.441406 -26.058594 L 37.773438 -39.988281 L 63.445312 -39.988281 L 59.875 -29.273438 Z M 49.394531 -37.824219 L 54.035156 -32.972656 L 47.667969 -35.09375 L 47.769531 -35.402344 L 54.136719 -33.277344 L 54.136719 -26.566406 L 40.640625 -26.566406 L 40.640625 -33.277344 L 45.488281 -28.640625 L 25.4375 -7.6875 L 20.128906 -31.839844 L 26.683594 -33.277344 L 26.683594 -26.566406 L 13.136719 -26.566406 L 13.136719 -33.277344 L 19.503906 -31.15625 L 19.402344 -30.851562 L 13.035156 -32.972656 L 19.425781 -35.019531 L 26.921875 -11.628906 L 21.902344 2.277344 L 15.589844 0 L 15.589844 -6.710938 L 22.238281 -6.710938 C 21.515625 -6.710938 20.839844 -6.515625 20.203125 -6.125 L 20.4375 -6.269531 L 24.417969 -8.285156 L 27.453125 -2.300781 L 24.148438 -8.144531 C 23.5625 -7.8125 23.152344 -7.34375 22.90625 -6.734375 L 29.136719 -4.242188 L 22.824219 -6.519531 L 26.070312 -15.519531 Z M 49.394531 -37.824219 "/></g></g></g><g fill="#ff66c4" fill-opacity="1"><g transform="translate(9.367143, 124.039368)"><g><path d="M 15.0625 -9.214844 L 14.347656 -15.144531 L 21.011719 -15.949219 L 27.320312 -13.664062 L 19.941406 6.710938 L -6.351562 6.710938 L 10.578125 -39.988281 L 41.050781 -39.988281 C 46.671875 -39.988281 50.964844 -38.601562 53.925781 -35.820312 C 54.957031 -34.851562 55.773438 -33.738281 56.371094 -32.476562 C 56.949219 -31.265625 57.304688 -29.96875 57.441406 -28.578125 C 57.660156 -26.355469 57.296875 -23.941406 56.359375 -21.339844 L 54.351562 -15.882812 L 48.054688 -18.199219 L 54.417969 -16.078125 C 53.898438 -14.511719 53.050781 -13.058594 51.882812 -11.71875 C 50.800781 -10.476562 49.535156 -9.445312 48.082031 -8.625 L 47.953125 -8.550781 L 40.558594 -4.800781 L 37.523438 -10.785156 L 41.039062 -5.070312 C 40.007812 -4.4375 38.917969 -3.976562 37.769531 -3.6875 C 36.757812 -3.433594 35.738281 -3.308594 34.710938 -3.308594 L 15.777344 -3.308594 Z M 28.390625 -10.824219 L 21.726562 -10.019531 L 21.726562 -16.730469 L 34.710938 -16.730469 C 34.636719 -16.730469 34.570312 -16.722656 34.515625 -16.710938 C 34.320312 -16.660156 34.152344 -16.589844 34.003906 -16.5 L 34.242188 -16.648438 L 41.746094 -20.453125 L 44.78125 -14.46875 L 41.480469 -20.308594 C 41.59375 -20.375 41.691406 -20.453125 41.765625 -20.539062 C 41.785156 -20.558594 41.796875 -20.574219 41.808594 -20.585938 C 41.804688 -20.582031 41.800781 -20.578125 41.792969 -20.566406 C 41.753906 -20.5 41.71875 -20.417969 41.6875 -20.320312 L 41.71875 -20.417969 L 43.734375 -25.894531 C 43.894531 -26.339844 44 -26.71875 44.050781 -27.035156 C 44.066406 -27.128906 44.078125 -27.207031 44.082031 -27.269531 C 44.101562 -27.097656 44.15625 -26.910156 44.257812 -26.703125 C 44.378906 -26.441406 44.539062 -26.21875 44.738281 -26.035156 L 44.726562 -26.027344 C 44.59375 -26.101562 44.410156 -26.167969 44.175781 -26.234375 C 43.394531 -26.457031 42.351562 -26.566406 41.050781 -26.566406 L 15.285156 -26.566406 L 15.285156 -33.277344 L 21.59375 -30.992188 L 9.53125 2.289062 L 3.21875 0 L 3.21875 -6.710938 L 15.234375 -6.710938 L 15.234375 0 L 8.921875 -2.285156 L 14.699219 -18.234375 L 27.671875 -16.753906 Z M 30.695312 -22.96875 L 28.089844 -15.761719 L 21.777344 -18.046875 L 21.777344 -24.757812 L 33.382812 -24.757812 C 32.972656 -24.757812 32.578125 -24.691406 32.203125 -24.558594 C 31.945312 -24.464844 31.722656 -24.351562 31.539062 -24.21875 C 31.085938 -23.890625 30.746094 -23.40625 30.523438 -22.765625 L 31.320312 -25.046875 L 31.351562 -25.136719 C 31.160156 -24.632812 31.078125 -24.070312 31.105469 -23.445312 C 31.144531 -22.472656 31.441406 -21.582031 31.996094 -20.769531 C 32.515625 -20 33.203125 -19.414062 34.050781 -19.011719 C 34.710938 -18.699219 35.371094 -18.542969 36.039062 -18.542969 L 24.382812 -18.542969 L 24.382812 -25.253906 Z M 19.675781 -31.964844 L 36.039062 -31.964844 C 37.386719 -31.964844 38.644531 -31.6875 39.804688 -31.136719 C 41.15625 -30.496094 42.253906 -29.550781 43.101562 -28.304688 C 43.976562 -27.015625 44.449219 -25.585938 44.515625 -24.019531 C 44.566406 -22.800781 44.359375 -21.578125 43.894531 -20.359375 L 37.625 -22.75 L 43.960938 -20.539062 L 43.191406 -18.332031 C 42.492188 -16.328125 41.230469 -14.667969 39.417969 -13.351562 C 37.558594 -12.007812 35.546875 -11.335938 33.382812 -11.335938 L 12.214844 -11.335938 L 18.074219 -27.535156 Z M 19.675781 -31.964844 "/></g></g></g><g fill="#ff66c4" fill-opacity="1"><g transform="translate(56.8354, 124.039368)"><g><path d="M 15.234375 6.710938 L -6.351562 6.710938 L 10.578125 -39.988281 L 41.050781 -39.988281 C 46.671875 -39.988281 50.964844 -38.601562 53.925781 -35.820312 C 54.957031 -34.851562 55.773438 -33.738281 56.371094 -32.476562 C 56.949219 -31.265625 57.304688 -29.96875 57.441406 -28.578125 C 57.660156 -26.355469 57.296875 -23.941406 56.359375 -21.339844 L 54.546875 -16.46875 C 54.210938 -15.542969 53.746094 -14.671875 53.160156 -13.859375 C 52.730469 -13.261719 52.199219 -12.648438 51.570312 -12.023438 L 51.199219 -11.652344 L 46.636719 -8.328125 C 44.265625 -6.550781 41.789062 -5.660156 39.210938 -5.660156 L 35.988281 -5.660156 L 35.988281 -12.371094 L 41.824219 -15.683594 L 50.152344 -1.019531 L 47.574219 6.710938 L 23.539062 6.710938 L 14.820312 -13.035156 L 20.960938 -15.746094 L 27.265625 -13.453125 L 19.933594 6.710938 Z M 15.234375 -6.710938 L 15.234375 0 L 8.925781 -2.292969 L 20.355469 -33.726562 L 34.050781 -2.710938 L 27.910156 0 L 27.910156 -6.710938 L 42.734375 -6.710938 L 42.734375 0 L 36.371094 -2.121094 L 36.472656 -2.429688 L 42.839844 -0.308594 L 37.003906 3.007812 L 24.460938 -19.082031 L 39.210938 -19.082031 C 38.898438 -19.082031 38.636719 -19.039062 38.417969 -18.953125 L 38.417969 -18.957031 C 38.484375 -18.996094 38.589844 -19.070312 38.734375 -19.175781 L 42.875 -22.191406 L 46.824219 -16.765625 L 42.082031 -21.511719 C 42.164062 -21.59375 42.230469 -21.664062 42.28125 -21.722656 L 42.28125 -21.71875 C 42.136719 -21.519531 42.03125 -21.332031 41.96875 -21.152344 L 43.734375 -25.894531 C 43.894531 -26.339844 44 -26.71875 44.050781 -27.035156 C 44.066406 -27.128906 44.078125 -27.207031 44.082031 -27.269531 C 44.101562 -27.097656 44.15625 -26.910156 44.257812 -26.703125 C 44.378906 -26.441406 44.539062 -26.21875 44.738281 -26.035156 L 44.726562 -26.027344 C 44.59375 -26.101562 44.410156 -26.167969 44.175781 -26.234375 C 43.394531 -26.457031 42.351562 -26.566406 41.050781 -26.566406 L 15.285156 -26.566406 L 15.285156 -33.277344 L 21.59375 -30.992188 L 9.53125 2.289062 L 3.21875 0 L 3.21875 -6.710938 Z M 30.699219 -22.976562 L 27.988281 -15.460938 L 21.675781 -17.738281 L 21.675781 -24.449219 L 33.226562 -24.449219 C 32.792969 -24.449219 32.378906 -24.378906 31.984375 -24.234375 C 31.710938 -24.132812 31.484375 -24.015625 31.296875 -23.875 C 31.175781 -23.785156 31.054688 -23.660156 30.925781 -23.496094 C 30.707031 -23.222656 30.535156 -22.914062 30.40625 -22.5625 L 31.265625 -25.042969 L 31.300781 -25.136719 C 31.109375 -24.632812 31.027344 -24.070312 31.054688 -23.445312 C 31.09375 -22.472656 31.390625 -21.582031 31.941406 -20.769531 C 32.464844 -20 33.152344 -19.414062 34 -19.011719 C 34.660156 -18.699219 35.320312 -18.542969 35.988281 -18.542969 L 24.382812 -18.542969 L 24.382812 -25.253906 Z M 19.671875 -31.964844 L 35.988281 -31.964844 C 37.335938 -31.964844 38.59375 -31.6875 39.753906 -31.136719 C 41.105469 -30.496094 42.203125 -29.550781 43.050781 -28.304688 C 43.925781 -27.015625 44.394531 -25.585938 44.464844 -24.019531 C 44.515625 -22.800781 44.308594 -21.578125 43.84375 -20.359375 L 37.574219 -22.75 L 43.914062 -20.546875 L 43 -17.921875 C 42.304688 -16.035156 41.089844 -14.441406 39.351562 -13.136719 C 37.476562 -11.730469 35.433594 -11.027344 33.226562 -11.027344 L 12.121094 -11.027344 L 18.070312 -27.53125 Z M 19.671875 -31.964844 "/></g></g></g><g fill="#ff66c4" fill-opacity="1"><g transform="translate(103.435097, 124.039368)"><g><path d="M 24.070312 -1.75 C 23.148438 0.5625 21.609375 2.324219 19.457031 3.542969 L 19.324219 3.617188 L 15.457031 5.578125 L 12.421875 -0.410156 L 15.9375 5.304688 C 14.417969 6.242188 12.75 6.710938 10.941406 6.710938 L -5.277344 6.710938 L 8.515625 -31.324219 C 9.011719 -32.613281 9.675781 -33.726562 10.511719 -34.660156 C 11.371094 -35.621094 12.390625 -36.394531 13.5625 -36.980469 L 17.175781 -38.839844 L 20.242188 -32.871094 L 16.726562 -38.585938 C 18.246094 -39.523438 19.914062 -39.988281 21.726562 -39.988281 L 37.945312 -39.988281 L 24.113281 -1.851562 Z M 11.609375 -6.734375 L 17.839844 -4.242188 L 11.53125 -6.53125 L 22.0625 -35.566406 L 28.371094 -33.277344 L 28.371094 -26.566406 L 21.726562 -26.566406 C 22.445312 -26.566406 23.125 -26.761719 23.761719 -27.15625 L 23.539062 -27.019531 L 19.5625 -24.976562 C 19.917969 -25.152344 20.238281 -25.398438 20.515625 -25.710938 C 20.773438 -26 20.980469 -26.34375 21.132812 -26.75 L 10.601562 2.289062 L 4.292969 0 L 4.292969 -6.710938 L 10.941406 -6.710938 C 10.21875 -6.710938 9.539062 -6.515625 8.90625 -6.125 L 9.140625 -6.269531 L 13.121094 -8.285156 L 16.152344 -2.300781 L 12.851562 -8.144531 C 12.265625 -7.8125 11.851562 -7.34375 11.609375 -6.734375 Z M 11.609375 -6.734375 "/></g></g></g><g fill="#ff66c4" fill-opacity="1"><g transform="translate(127.195959, 124.039368)"><g><path d="M 15.234375 6.710938 L -6.351562 6.710938 L 10.578125 -39.988281 L 30.195312 -39.988281 L 42.945312 -16.777344 L 37.0625 -13.546875 L 30.753906 -15.835938 L 39.515625 -39.988281 L 65.804688 -39.988281 L 52.011719 -1.953125 C 51.515625 -0.664062 50.847656 0.445312 50.011719 1.382812 C 49.152344 2.34375 48.136719 3.117188 46.964844 3.703125 L 43.265625 5.578125 L 40.230469 -0.410156 L 43.75 5.304688 C 42.226562 6.242188 40.578125 6.710938 38.800781 6.710938 L 29.394531 6.710938 L 16.300781 -15.507812 L 22.082031 -18.914062 L 28.394531 -16.628906 L 19.941406 6.710938 Z M 15.234375 -6.710938 L 15.234375 0 L 8.921875 -2.285156 L 20.628906 -34.605469 L 39.011719 -3.40625 L 33.226562 0 L 33.226562 -6.710938 L 38.800781 -6.710938 C 38.046875 -6.710938 37.351562 -6.515625 36.714844 -6.125 L 36.949219 -6.269531 L 40.960938 -8.304688 C 40.605469 -8.125 40.289062 -7.878906 40.011719 -7.566406 C 39.753906 -7.28125 39.546875 -6.933594 39.390625 -6.53125 L 49.921875 -35.566406 L 56.230469 -33.277344 L 56.230469 -26.566406 L 44.21875 -26.566406 L 44.21875 -33.277344 L 50.527344 -30.992188 L 38.316406 2.675781 L 20.34375 -30.046875 L 26.222656 -33.277344 L 26.222656 -26.566406 L 15.285156 -26.566406 L 15.285156 -33.277344 L 21.59375 -30.992188 L 9.53125 2.289062 L 3.21875 0 L 3.21875 -6.710938 Z M 15.234375 -6.710938 "/></g></g></g><g fill="#ff66c4" fill-opacity="1"><g transform="translate(177.72986, 124.039368)"><g><path d="M 57.378906 -30.988281 L 52.859375 -18.542969 L 27.246094 -18.542969 C 27.703125 -18.542969 28.128906 -18.613281 28.53125 -18.757812 C 28.761719 -18.839844 28.953125 -18.933594 29.101562 -19.039062 C 29.546875 -19.351562 29.875 -19.789062 30.09375 -20.359375 L 25.679688 -8.234375 C 25.898438 -8.855469 25.976562 -9.496094 25.917969 -10.160156 C 25.84375 -11.042969 25.554688 -11.851562 25.050781 -12.578125 C 24.535156 -13.328125 23.859375 -13.898438 23.023438 -14.289062 C 22.386719 -14.589844 21.75 -14.738281 21.113281 -14.738281 L 51.496094 -14.738281 L 43.707031 6.710938 L 13.597656 6.710938 C 12.34375 6.710938 11.179688 6.53125 10.109375 6.175781 C 8.644531 5.6875 7.40625 4.898438 6.390625 3.8125 L 11.296875 -0.765625 L 7.078125 4.449219 L 2.253906 0.546875 L 2.003906 0.296875 C 0.480469 -1.226562 -0.421875 -3.074219 -0.699219 -5.253906 C -0.917969 -6.933594 -0.742188 -8.617188 -0.179688 -10.300781 L -0.152344 -10.390625 L 5.503906 -25.914062 C 6.355469 -28.28125 7.527344 -30.371094 9.019531 -32.183594 C 10.558594 -34.058594 12.402344 -35.59375 14.546875 -36.789062 C 18.375 -38.921875 22.777344 -39.988281 27.757812 -39.988281 L 60.644531 -39.988281 Z M 44.761719 -35.570312 L 51.070312 -33.277344 L 51.070312 -26.566406 L 27.757812 -26.566406 C 25.105469 -26.566406 22.878906 -26.066406 21.082031 -25.066406 C 20.417969 -24.695312 19.851562 -24.226562 19.390625 -23.664062 C 18.878906 -23.042969 18.453125 -22.261719 18.113281 -21.320312 L 12.492188 -5.882812 L 6.183594 -8.179688 L 12.550781 -6.058594 C 12.636719 -6.3125 12.65625 -6.613281 12.613281 -6.960938 C 12.503906 -7.8125 12.128906 -8.554688 11.492188 -9.191406 L 6.746094 -4.449219 L 10.96875 -9.664062 L 15.882812 -5.6875 L 16.203125 -5.347656 C 15.664062 -5.921875 15.046875 -6.328125 14.351562 -6.558594 C 14.046875 -6.660156 13.796875 -6.710938 13.597656 -6.710938 L 39.003906 -6.710938 L 39.003906 0 L 32.695312 -2.289062 L 35.609375 -10.316406 L 41.917969 -8.027344 L 41.917969 -1.316406 L 21.113281 -1.316406 C 19.761719 -1.316406 18.5 -1.585938 17.335938 -2.132812 C 15.972656 -2.769531 14.863281 -3.710938 14.003906 -4.957031 C 13.160156 -6.179688 12.675781 -7.523438 12.546875 -8.996094 C 12.4375 -10.25 12.613281 -11.527344 13.066406 -12.828125 L 17.550781 -25.136719 C 18.3125 -27.136719 19.597656 -28.769531 21.40625 -30.035156 C 23.242188 -31.320312 25.1875 -31.964844 27.246094 -31.964844 L 48.15625 -31.964844 L 48.15625 -25.253906 L 41.847656 -27.542969 Z M 44.761719 -35.570312 "/></g></g></g><g fill="#ff66c4" fill-opacity="1"><g transform="translate(222.745649, 124.039368)"><g><path d="M 30.703125 -22.992188 L 28.964844 -18.136719 L 22.644531 -20.398438 L 22.644531 -27.109375 L 53.832031 -27.109375 L 46.140625 -6.171875 L 19.886719 -6.171875 L 19.886719 -12.882812 L 26.179688 -10.554688 L 25.3125 -8.203125 C 25.535156 -8.84375 25.621094 -9.496094 25.5625 -10.160156 C 25.484375 -11.042969 25.195312 -11.851562 24.695312 -12.578125 C 24.175781 -13.328125 23.5 -13.898438 22.664062 -14.289062 C 22.027344 -14.589844 21.390625 -14.738281 20.753906 -14.738281 L 51.445312 -14.738281 L 43.65625 6.710938 L 13.597656 6.710938 C 12.34375 6.710938 11.179688 6.53125 10.109375 6.175781 C 8.644531 5.6875 7.40625 4.898438 6.390625 3.8125 L 11.296875 -0.765625 L 7.078125 4.449219 L 2.253906 0.546875 L 2.003906 0.296875 C 0.480469 -1.226562 -0.421875 -3.074219 -0.699219 -5.253906 C -0.917969 -6.933594 -0.742188 -8.617188 -0.179688 -10.300781 L -0.152344 -10.382812 L 10.578125 -39.988281 L 60.59375 -39.988281 L 52.808594 -18.542969 L 24.382812 -18.542969 L 24.382812 -25.253906 Z M 19.65625 -31.964844 L 48.105469 -31.964844 L 48.105469 -25.253906 L 41.796875 -27.542969 L 44.710938 -35.570312 L 51.019531 -33.277344 L 51.019531 -26.566406 L 15.285156 -26.566406 L 15.285156 -33.277344 L 21.59375 -30.992188 L 12.496094 -5.890625 L 6.183594 -8.179688 L 12.550781 -6.058594 C 12.636719 -6.3125 12.65625 -6.613281 12.613281 -6.960938 C 12.503906 -7.8125 12.128906 -8.554688 11.492188 -9.191406 L 6.746094 -4.449219 L 10.96875 -9.664062 L 15.882812 -5.6875 L 16.203125 -5.347656 C 15.664062 -5.921875 15.046875 -6.328125 14.351562 -6.558594 C 14.046875 -6.660156 13.796875 -6.710938 13.597656 -6.710938 L 38.953125 -6.710938 L 38.953125 0 L 32.644531 -2.289062 L 35.558594 -10.316406 L 41.867188 -8.027344 L 41.867188 -1.316406 L 20.753906 -1.316406 C 19.402344 -1.316406 18.144531 -1.585938 16.976562 -2.132812 C 15.617188 -2.769531 14.503906 -3.710938 13.644531 -4.957031 C 12.804688 -6.179688 12.316406 -7.523438 12.191406 -8.996094 C 12.082031 -10.25 12.257812 -11.535156 12.722656 -12.855469 L 15.210938 -19.59375 L 41.457031 -19.59375 L 41.457031 -12.882812 L 35.160156 -15.195312 L 37.917969 -22.710938 L 44.21875 -20.398438 L 44.21875 -13.6875 L 13.117188 -13.6875 L 18.066406 -27.515625 Z M 19.65625 -31.964844 "/></g></g></g><g fill="#ff66c4" fill-opacity="1"><g transform="translate(267.710352, 124.039368)"><g><path d="M 53.953125 -18.414062 L 49.964844 -7.425781 C 49.386719 -5.832031 48.515625 -4.402344 47.351562 -3.132812 C 46.339844 -2.03125 45.171875 -1.085938 43.851562 -0.304688 L 34.265625 5.082031 L 30.980469 -0.765625 L 34.496094 4.949219 C 33.480469 5.574219 32.417969 6.03125 31.308594 6.316406 C 30.296875 6.578125 29.265625 6.710938 28.21875 6.710938 L -6.558594 6.710938 L 1.226562 -14.738281 L 28.523438 -14.738281 C 28.097656 -14.738281 27.683594 -14.664062 27.285156 -14.519531 C 26.980469 -14.410156 26.71875 -14.269531 26.5 -14.101562 C 26.082031 -13.78125 25.769531 -13.332031 25.566406 -12.746094 L 25.59375 -12.835938 L 26.445312 -15.066406 L 32.71875 -12.679688 L 32.71875 -5.964844 L -1.945312 -5.964844 L 5.242188 -25.847656 C 6.460938 -29.035156 8.59375 -31.488281 11.636719 -33.199219 L 21.039062 -38.386719 C 21.976562 -38.925781 22.964844 -39.328125 24.003906 -39.597656 C 25.015625 -39.859375 26.027344 -39.988281 27.042969 -39.988281 L 61.769531 -39.988281 L 53.984375 -18.542969 L 26.734375 -18.542969 C 27.460938 -18.542969 28.074219 -18.722656 28.578125 -19.085938 C 29.007812 -19.394531 29.324219 -19.816406 29.53125 -20.359375 L 23.257812 -22.75 L 29.59375 -20.53125 L 28.878906 -18.488281 L 22.542969 -20.703125 L 22.542969 -27.414062 L 57.21875 -27.414062 Z M 41.335938 -22.992188 L 47.644531 -20.703125 L 47.644531 -13.992188 L 13.085938 -13.992188 L 16.957031 -25.050781 L 16.988281 -25.136719 C 17.738281 -27.109375 18.996094 -28.726562 20.75 -29.988281 C 22.585938 -31.304688 24.582031 -31.964844 26.734375 -31.964844 L 49.28125 -31.964844 L 49.28125 -25.253906 L 42.972656 -27.542969 L 45.886719 -35.570312 L 52.195312 -33.277344 L 52.195312 -26.566406 L 27.042969 -26.566406 C 27.171875 -26.566406 27.28125 -26.578125 27.371094 -26.605469 C 27.488281 -26.632812 27.542969 -26.644531 27.523438 -26.636719 L 18.21875 -21.5 C 17.988281 -21.371094 17.871094 -21.300781 17.863281 -21.285156 L 13.929688 -10.394531 L 7.617188 -12.679688 L 7.617188 -19.390625 L 42.453125 -19.390625 L 38.171875 -8.140625 L 31.898438 -10.53125 L 38.234375 -8.3125 C 37.550781 -6.367188 36.355469 -4.738281 34.640625 -3.433594 C 32.792969 -2.019531 30.753906 -1.316406 28.523438 -1.316406 L 5.929688 -1.316406 L 5.929688 -8.027344 L 12.238281 -5.734375 L 9.324219 2.289062 L 3.015625 0 L 3.015625 -6.710938 L 28.21875 -6.710938 C 28.125 -6.710938 28.03125 -6.699219 27.941406 -6.675781 C 27.75 -6.625 27.589844 -6.5625 27.460938 -6.480469 L 27.574219 -6.550781 L 37.023438 -11.859375 C 37.199219 -11.964844 37.34375 -12.078125 37.457031 -12.203125 C 37.417969 -12.160156 37.378906 -12.09375 37.347656 -12 Z M 41.335938 -22.992188 "/></g></g></g><g fill="#ff66c4" fill-opacity="1"><g transform="translate(314.003484, 124.039368)"><g><path d="M 53.953125 -18.414062 L 49.964844 -7.425781 C 49.386719 -5.832031 48.515625 -4.402344 47.351562 -3.132812 C 46.339844 -2.03125 45.171875 -1.085938 43.851562 -0.304688 L 34.265625 5.082031 L 30.980469 -0.765625 L 34.496094 4.949219 C 33.480469 5.574219 32.417969 6.03125 31.308594 6.316406 C 30.296875 6.578125 29.265625 6.710938 28.21875 6.710938 L -6.558594 6.710938 L 1.226562 -14.738281 L 28.523438 -14.738281 C 28.097656 -14.738281 27.683594 -14.664062 27.285156 -14.519531 C 26.980469 -14.410156 26.71875 -14.269531 26.5 -14.101562 C 26.082031 -13.78125 25.769531 -13.332031 25.566406 -12.746094 L 25.59375 -12.835938 L 26.445312 -15.066406 L 32.71875 -12.679688 L 32.71875 -5.964844 L -1.945312 -5.964844 L 5.242188 -25.847656 C 6.460938 -29.035156 8.59375 -31.488281 11.636719 -33.199219 L 21.039062 -38.386719 C 21.976562 -38.925781 22.964844 -39.328125 24.003906 -39.597656 C 25.015625 -39.859375 26.027344 -39.988281 27.042969 -39.988281 L 61.769531 -39.988281 L 53.984375 -18.542969 L 26.734375 -18.542969 C 27.460938 -18.542969 28.074219 -18.722656 28.578125 -19.085938 C 29.007812 -19.394531 29.324219 -19.816406 29.53125 -20.359375 L 23.257812 -22.75 L 29.59375 -20.53125 L 28.878906 -18.488281 L 22.542969 -20.703125 L 22.542969 -27.414062 L 57.21875 -27.414062 Z M 41.335938 -22.992188 L 47.644531 -20.703125 L 47.644531 -13.992188 L 13.085938 -13.992188 L 16.957031 -25.050781 L 16.988281 -25.136719 C 17.738281 -27.109375 18.996094 -28.726562 20.75 -29.988281 C 22.585938 -31.304688 24.582031 -31.964844 26.734375 -31.964844 L 49.28125 -31.964844 L 49.28125 -25.253906 L 42.972656 -27.542969 L 45.886719 -35.570312 L 52.195312 -33.277344 L 52.195312 -26.566406 L 27.042969 -26.566406 C 27.171875 -26.566406 27.28125 -26.578125 27.371094 -26.605469 C 27.488281 -26.632812 27.542969 -26.644531 27.523438 -26.636719 L 18.21875 -21.5 C 17.988281 -21.371094 17.871094 -21.300781 17.863281 -21.285156 L 13.929688 -10.394531 L 7.617188 -12.679688 L 7.617188 -19.390625 L 42.453125 -19.390625 L 38.171875 -8.140625 L 31.898438 -10.53125 L 38.234375 -8.3125 C 37.550781 -6.367188 36.355469 -4.738281 34.640625 -3.433594 C 32.792969 -2.019531 30.753906 -1.316406 28.523438 -1.316406 L 5.929688 -1.316406 L 5.929688 -8.027344 L 12.238281 -5.734375 L 9.324219 2.289062 L 3.015625 0 L 3.015625 -6.710938 L 28.21875 -6.710938 C 28.125 -6.710938 28.03125 -6.699219 27.941406 -6.675781 C 27.75 -6.625 27.589844 -6.5625 27.460938 -6.480469 L 27.574219 -6.550781 L 37.023438 -11.859375 C 37.199219 -11.964844 37.34375 -12.078125 37.457031 -12.203125 C 37.417969 -12.160156 37.378906 -12.09375 37.347656 -12 Z M 41.335938 -22.992188 "/></g></g></g><g fill="#ffffff" fill-opacity="1"><g transform="translate(135.132757, 55.039374)"><g><path d="M 27.046875 0 L 22.90625 0 L 21.875 -19.28125 L 19.53125 -11.859375 L 15.234375 0 L 3.21875 0 L 15.28125 -33.28125 L 28.375 -33.28125 L 29.25 -11.765625 L 45.703125 -33.28125 L 58.796875 -33.28125 L 46.734375 0 L 34.71875 0 L 39.015625 -11.859375 L 42.078125 -19.28125 Z M 27.046875 0 "/></g></g></g><g fill="#ffffff" fill-opacity="1"><g transform="translate(188.221346, 55.039374)"><g><path d="M 54.046875 -32.96875 L 31.84375 -11.765625 L 29.140625 -4.25 C 28.796875 -3.394531 28.234375 -2.742188 27.453125 -2.296875 L 23.71875 -0.40625 C 23.28125 -0.132812 22.785156 0 22.234375 0 L 15.59375 0 L 19.84375 -11.765625 L 13.03125 -32.96875 L 13.140625 -33.28125 L 26.6875 -33.28125 L 29.296875 -21.421875 L 40.640625 -33.28125 L 54.140625 -33.28125 Z M 54.046875 -32.96875 "/></g></g></g><g fill="#ffffff" fill-opacity="1"><g transform="translate(9.367143, 124.039368)"><g><path d="M 21.734375 -10.015625 L 21.015625 -15.953125 L 15.234375 0 L 3.21875 0 L 15.28125 -33.28125 L 41.046875 -33.28125 C 44.898438 -33.28125 47.660156 -32.492188 49.328125 -30.921875 C 51.003906 -29.359375 51.242188 -26.925781 50.046875 -23.625 L 48.0625 -18.203125 C 47.820312 -17.484375 47.410156 -16.789062 46.828125 -16.125 C 46.253906 -15.46875 45.570312 -14.914062 44.78125 -14.46875 L 37.53125 -10.78125 C 37.082031 -10.507812 36.617188 -10.3125 36.140625 -10.1875 C 35.660156 -10.070312 35.1875 -10.015625 34.71875 -10.015625 Z M 24.390625 -25.25 L 21.78125 -18.046875 L 33.390625 -18.046875 C 34.097656 -18.046875 34.789062 -18.289062 35.46875 -18.78125 C 36.15625 -19.28125 36.617188 -19.867188 36.859375 -20.546875 L 37.625 -22.75 C 37.894531 -23.46875 37.867188 -24.0625 37.546875 -24.53125 C 37.222656 -25.007812 36.722656 -25.25 36.046875 -25.25 Z M 24.390625 -25.25 "/></g></g></g><g fill="#ffffff" fill-opacity="1"><g transform="translate(56.8354, 124.039368)"><g><path d="M 15.234375 0 L 3.21875 0 L 15.28125 -33.28125 L 41.046875 -33.28125 C 44.898438 -33.28125 47.660156 -32.492188 49.328125 -30.921875 C 51.003906 -29.359375 51.242188 -26.925781 50.046875 -23.625 L 48.265625 -18.8125 C 48.128906 -18.4375 47.945312 -18.09375 47.71875 -17.78125 C 47.5 -17.476562 47.203125 -17.140625 46.828125 -16.765625 L 42.6875 -13.75 C 41.457031 -12.832031 40.300781 -12.375 39.21875 -12.375 L 35.984375 -12.375 L 42.84375 -0.3125 L 42.734375 0 L 27.921875 0 L 20.96875 -15.75 Z M 24.390625 -25.25 L 21.671875 -17.734375 L 33.234375 -17.734375 C 33.953125 -17.734375 34.648438 -17.988281 35.328125 -18.5 C 36.003906 -19.019531 36.460938 -19.601562 36.703125 -20.25 L 37.578125 -22.75 C 37.847656 -23.46875 37.820312 -24.0625 37.5 -24.53125 C 37.175781 -25.007812 36.671875 -25.25 35.984375 -25.25 Z M 24.390625 -25.25 "/></g></g></g><g fill="#ffffff" fill-opacity="1"><g transform="translate(103.435097, 124.039368)"><g><path d="M 17.84375 -4.25 C 17.5 -3.394531 16.9375 -2.742188 16.15625 -2.296875 L 12.421875 -0.40625 C 11.984375 -0.132812 11.488281 0 10.9375 0 L 4.296875 0 L 14.828125 -29.03125 C 15.171875 -29.925781 15.75 -30.578125 16.5625 -30.984375 L 20.25 -32.875 C 20.6875 -33.144531 21.179688 -33.28125 21.734375 -33.28125 L 28.375 -33.28125 Z M 17.84375 -4.25 "/></g></g></g><g fill="#ffffff" fill-opacity="1"><g transform="translate(127.195959, 124.039368)"><g><path d="M 15.234375 0 L 3.21875 0 L 15.28125 -33.28125 L 26.234375 -33.28125 L 37.0625 -13.546875 L 44.21875 -33.28125 L 56.234375 -33.28125 L 45.703125 -4.25 C 45.359375 -3.363281 44.78125 -2.710938 43.96875 -2.296875 L 40.234375 -0.40625 C 39.796875 -0.132812 39.316406 0 38.796875 0 L 33.234375 0 L 22.09375 -18.921875 Z M 15.234375 0 "/></g></g></g><g fill="#ffffff" fill-opacity="1"><g transform="translate(177.72986, 124.039368)"><g><path d="M 51.078125 -33.28125 L 48.15625 -25.25 L 27.25 -25.25 C 26.601562 -25.25 25.9375 -25.007812 25.25 -24.53125 C 24.570312 -24.0625 24.097656 -23.46875 23.828125 -22.75 L 19.375 -10.53125 C 19.132812 -9.851562 19.1875 -9.265625 19.53125 -8.765625 C 19.875 -8.273438 20.398438 -8.03125 21.109375 -8.03125 L 41.921875 -8.03125 L 39.015625 0 L 13.59375 0 C 12.539062 0 11.773438 -0.253906 11.296875 -0.765625 L 6.75 -4.453125 C 6.300781 -4.890625 6.035156 -5.441406 5.953125 -6.109375 C 5.867188 -6.773438 5.945312 -7.46875 6.1875 -8.1875 L 11.8125 -23.625 C 13 -26.925781 15 -29.359375 17.8125 -30.921875 C 20.625 -32.492188 23.941406 -33.28125 27.765625 -33.28125 Z M 51.078125 -33.28125 "/></g></g></g><g fill="#ffffff" fill-opacity="1"><g transform="translate(222.745649, 124.039368)"><g><path d="M 24.390625 -25.25 L 22.640625 -20.40625 L 44.21875 -20.40625 L 41.46875 -12.890625 L 19.890625 -12.890625 L 19.015625 -10.53125 C 18.773438 -9.851562 18.828125 -9.265625 19.171875 -8.765625 C 19.515625 -8.273438 20.039062 -8.03125 20.75 -8.03125 L 41.875 -8.03125 L 38.953125 0 L 13.59375 0 C 12.539062 0 11.773438 -0.253906 11.296875 -0.765625 L 6.75 -4.453125 C 6.300781 -4.890625 6.035156 -5.441406 5.953125 -6.109375 C 5.867188 -6.773438 5.945312 -7.46875 6.1875 -8.1875 L 15.28125 -33.28125 L 51.015625 -33.28125 L 48.109375 -25.25 Z M 24.390625 -25.25 "/></g></g></g><g fill="#ffffff" fill-opacity="1"><g transform="translate(267.710352, 124.039368)"><g><path d="M 47.65625 -20.703125 L 43.65625 -9.71875 C 43.382812 -8.96875 42.96875 -8.285156 42.40625 -7.671875 C 41.84375 -7.054688 41.1875 -6.523438 40.4375 -6.078125 L 30.984375 -0.765625 C 30.535156 -0.492188 30.082031 -0.296875 29.625 -0.171875 C 29.164062 -0.0546875 28.695312 0 28.21875 0 L 3.015625 0 L 5.9375 -8.03125 L 28.53125 -8.03125 C 29.238281 -8.03125 29.914062 -8.273438 30.5625 -8.765625 C 31.21875 -9.265625 31.664062 -9.851562 31.90625 -10.53125 L 32.71875 -12.671875 L 7.625 -12.671875 L 11.546875 -23.5625 C 12.160156 -25.164062 13.285156 -26.429688 14.921875 -27.359375 L 24.28125 -32.515625 C 24.757812 -32.785156 25.226562 -32.976562 25.6875 -33.09375 C 26.144531 -33.21875 26.597656 -33.28125 27.046875 -33.28125 L 52.203125 -33.28125 L 49.28125 -25.25 L 26.734375 -25.25 C 26.023438 -25.25 25.335938 -25.007812 24.671875 -24.53125 C 24.003906 -24.0625 23.535156 -23.46875 23.265625 -22.75 L 22.546875 -20.703125 Z M 47.65625 -20.703125 "/></g></g></g><g fill="#ffffff" fill-opacity="1"><g transform="translate(314.003484, 124.039368)"><g><path d="M 47.65625 -20.703125 L 43.65625 -9.71875 C 43.382812 -8.96875 42.96875 -8.285156 42.40625 -7.671875 C 41.84375 -7.054688 41.1875 -6.523438 40.4375 -6.078125 L 30.984375 -0.765625 C 30.535156 -0.492188 30.082031 -0.296875 29.625 -0.171875 C 29.164062 -0.0546875 28.695312 0 28.21875 0 L 3.015625 0 L 5.9375 -8.03125 L 28.53125 -8.03125 C 29.238281 -8.03125 29.914062 -8.273438 30.5625 -8.765625 C 31.21875 -9.265625 31.664062 -9.851562 31.90625 -10.53125 L 32.71875 -12.671875 L 7.625 -12.671875 L 11.546875 -23.5625 C 12.160156 -25.164062 13.285156 -26.429688 14.921875 -27.359375 L 24.28125 -32.515625 C 24.757812 -32.785156 25.226562 -32.976562 25.6875 -33.09375 C 26.144531 -33.21875 26.597656 -33.28125 27.046875 -33.28125 L 52.203125 -33.28125 L 49.28125 -25.25 L 26.734375 -25.25 C 26.023438 -25.25 25.335938 -25.007812 24.671875 -24.53125 C 24.003906 -24.0625 23.535156 -23.46875 23.265625 -22.75 L 22.546875 -20.703125 Z M 47.65625 -20.703125 "/></g></g></g></g></g></svg>